<svg width="21" height="20" viewBox="0 0 21 20" fill="none" xmlns="http://www.w3.org/2000/svg">
<path d="M9.07465 3.21635L2.01632 14.9997C1.87079 15.2517 1.79379 15.5374 1.79298 15.8284C1.79216 16.1195 1.86756 16.4056 2.01167 16.6585C2.15579 16.9113 2.36359 17.122 2.61441 17.2696C2.86523 17.4171 3.15032 17.4965 3.44132 17.4997H17.558C17.849 17.4965 18.1341 17.4171 18.3849 17.2696C18.6357 17.122 18.8435 16.9113 18.9876 16.6585C19.1317 16.4056 19.2071 16.1195 19.2063 15.8284C19.2055 15.5374 19.1285 15.2517 18.983 14.9997L11.9247 3.21635C11.7761 2.97144 11.5669 2.76895 11.3173 2.62842C11.0677 2.48789 10.7861 2.41406 10.4997 2.41406C10.2132 2.41406 9.93159 2.48789 9.68199 2.62842C9.43238 2.76895 9.22321 2.97144 9.07465 3.21635Z" stroke="#F25A5A" stroke-width="1.5" stroke-linecap="round" stroke-linejoin="round"/>
<path d="M10.5 7.5V10.8333" stroke="#F25A5A" stroke-width="1.5" stroke-linecap="round" stroke-linejoin="round"/>
<path d="M10.5 14.167H10.5083" stroke="#F25A5A" stroke-width="1.5" stroke-linecap="round" stroke-linejoin="round"/>
</svg>
