<svg width="14" height="14" viewBox="0 0 14 14" fill="none" xmlns="http://www.w3.org/2000/svg">
<path d="M5.70371 4.14815C5.70371 3.94304 5.76453 3.74254 5.87848 3.572C5.99243 3.40146 6.15439 3.26854 6.34389 3.19005C6.53338 3.11156 6.74189 3.09102 6.94306 3.13104C7.14422 3.17105 7.32901 3.26982 7.47404 3.41485C7.61907 3.55988 7.71784 3.74467 7.75785 3.94583C7.79787 4.147 7.77733 4.35551 7.69884 4.545C7.62035 4.7345 7.48743 4.89646 7.31689 5.01041C7.14635 5.12436 6.94585 5.18518 6.74074 5.18518C6.4657 5.18518 6.20193 5.07592 6.00745 4.88144C5.81296 4.68696 5.70371 4.42319 5.70371 4.14815ZM14 7C14 8.38447 13.5895 9.73785 12.8203 10.889C12.0511 12.0401 10.9579 12.9373 9.67878 13.4672C8.3997 13.997 6.99224 14.1356 5.63437 13.8655C4.2765 13.5954 3.02922 12.9287 2.05026 11.9497C1.07129 10.9708 0.404603 9.7235 0.134506 8.36563C-0.13559 7.00776 0.003033 5.6003 0.532846 4.32121C1.06266 3.04213 1.95987 1.94888 3.11101 1.17971C4.26215 0.410543 5.61553 0 7 0C8.85588 0.00205866 10.6352 0.740218 11.9475 2.05253C13.2598 3.36483 13.9979 5.14411 14 7ZM12.4444 7C12.4444 5.92319 12.1251 4.87056 11.5269 3.97523C10.9286 3.07989 10.0783 2.38207 9.0835 1.96999C8.08866 1.55791 6.99396 1.45009 5.93784 1.66017C4.88172 1.87024 3.91162 2.38878 3.1502 3.1502C2.38878 3.91161 1.87025 4.88172 1.66017 5.93784C1.4501 6.99396 1.55791 8.08865 1.96999 9.0835C2.38207 10.0783 3.0799 10.9286 3.97523 11.5269C4.87056 12.1251 5.92319 12.4444 7 12.4444C8.44348 12.4429 9.8274 11.8688 10.8481 10.8481C11.8688 9.8274 12.4429 8.44348 12.4444 7ZM7.77778 9.3774V7.25926C7.77778 6.91546 7.64121 6.58574 7.3981 6.34264C7.155 6.09953 6.82528 5.96296 6.48148 5.96296C6.2978 5.96269 6.11995 6.02743 5.97943 6.14572C5.83892 6.26401 5.74479 6.42821 5.71374 6.60925C5.68269 6.79029 5.71671 6.97647 5.80978 7.13483C5.90284 7.29318 6.04895 7.41349 6.22222 7.47444V9.59259C6.22222 9.93639 6.3588 10.2661 6.6019 10.5092C6.845 10.7523 7.17472 10.8889 7.51852 10.8889C7.7022 10.8892 7.88005 10.8244 8.02057 10.7061C8.16109 10.5878 8.25521 10.4236 8.28626 10.2426C8.31731 10.0616 8.28329 9.87538 8.19023 9.71702C8.09716 9.55867 7.95105 9.43836 7.77778 9.3774Z" fill="white"/>
</svg>
