<svg width="20" height="18" viewBox="0 0 20 18" fill="none" xmlns="http://www.w3.org/2000/svg">
<path d="M15.3597 8.44765L15.359 8.44876C15.1275 8.82965 14.6571 9.10829 14.0914 9.10829H6.87623H6.59549L6.44933 9.34798L5.384 11.0951L4.9204 11.8554H5.8109H16.9327V12.6026H5.8109C5.24065 12.6026 4.79903 12.3293 4.56494 11.9709C4.3341 11.6174 4.2973 11.1762 4.54325 10.7679C4.54352 10.7674 4.54378 10.767 4.54405 10.7666L5.84971 8.63799L5.99842 8.39557L5.86605 8.14385L2.37951 1.51345L2.23896 1.24616H1.93697H0.5V0.499023H2.86367L3.6339 1.97721L3.77404 2.24616H4.07731H18.4106C18.5008 2.2462 18.587 2.26762 18.6602 2.30541C18.7332 2.34311 18.7877 2.39408 18.8231 2.44831C18.8581 2.50202 18.8743 2.55848 18.875 2.61245C18.8757 2.66639 18.861 2.72279 18.8278 2.77668L18.8269 2.77818L15.3597 8.44765ZM4.99737 2.9933H4.16979L4.55477 3.72589L6.85007 8.09374L6.9906 8.36115H7.29268H14.0914H14.3716L14.5179 8.12214L17.1909 3.7543L17.6566 2.9933H16.7644H4.99737ZM4.38362 15.7233C4.38362 15.0827 4.97535 14.4761 5.8109 14.4761C6.64985 14.4761 7.24787 15.0858 7.24787 15.7233C7.24787 16.3608 6.64985 16.9704 5.8109 16.9704C4.97535 16.9704 4.38362 16.3639 4.38362 15.7233ZM14.0685 15.7233C14.0685 15.0827 14.6602 14.4761 15.4957 14.4761C16.3347 14.4761 16.9327 15.0858 16.9327 15.7233C16.9327 16.3608 16.3347 16.9704 15.4957 16.9704C14.6602 16.9704 14.0685 16.3639 14.0685 15.7233Z" fill="white" stroke="black"/>
</svg>
