<svg width="20" height="20" viewBox="0 0 20 20" fill="none" xmlns="http://www.w3.org/2000/svg">
<path d="M12.5001 18.9583H7.50008C2.97508 18.9583 1.04175 17.025 1.04175 12.5V7.49996C1.04175 2.97496 2.97508 1.04163 7.50008 1.04163H12.5001C17.0251 1.04163 18.9584 2.97496 18.9584 7.49996V12.5C18.9584 17.025 17.0251 18.9583 12.5001 18.9583ZM7.50008 2.29163C3.65841 2.29163 2.29175 3.65829 2.29175 7.49996V12.5C2.29175 16.3416 3.65841 17.7083 7.50008 17.7083H12.5001C16.3417 17.7083 17.7084 16.3416 17.7084 12.5V7.49996C17.7084 3.65829 16.3417 2.29163 12.5001 2.29163H7.50008Z" fill="#E3F1EC"/>
<path d="M8.8167 12.9833C8.65003 12.9833 8.4917 12.9166 8.37503 12.8L6.0167 10.4416C5.77503 10.2 5.77503 9.79996 6.0167 9.55829C6.25837 9.31663 6.65837 9.31663 6.90003 9.55829L8.8167 11.475L13.1 7.19163C13.3417 6.94996 13.7417 6.94996 13.9834 7.19163C14.225 7.43329 14.225 7.83329 13.9834 8.07496L9.25837 12.8C9.1417 12.9166 8.98337 12.9833 8.8167 12.9833Z" fill="#E3F1EC"/>
</svg>
