<svg width="21" height="21" viewBox="0 0 21 21" fill="none" xmlns="http://www.w3.org/2000/svg">
    <path d="M14.667 18.2087H6.33366C3.29199 18.2087 1.54199 16.4587 1.54199 13.417V7.58366C1.54199 4.54199 3.29199 2.79199 6.33366 2.79199H14.667C17.7087 2.79199 19.4587 4.54199 19.4587 7.58366V13.417C19.4587 16.4587 17.7087 18.2087 14.667 18.2087ZM6.33366 4.04199C3.95033 4.04199 2.79199 5.20033 2.79199 7.58366V13.417C2.79199 15.8003 3.95033 16.9587 6.33366 16.9587H14.667C17.0503 16.9587 18.2087 15.8003 18.2087 13.417V7.58366C18.2087 5.20033 17.0503 4.04199 14.667 4.04199H6.33366Z" fill="#E3F1EC"/>
    <path d="M10.5 11.225C9.79998 11.225 9.09165 11.0083 8.54998 10.5666L5.94164 8.48331C5.67498 8.26664 5.62498 7.87497 5.84165 7.60831C6.05831 7.34164 6.44998 7.29164 6.71665 7.50831L9.32497 9.59164C9.95831 10.1 11.0333 10.1 11.6666 9.59164L14.275 7.50831C14.5416 7.29164 14.9416 7.33331 15.15 7.60831C15.3666 7.87497 15.325 8.27498 15.05 8.48331L12.4416 10.5666C11.9083 11.0083 11.2 11.225 10.5 11.225Z" fill="#E3F1EC"/>
    </svg>
    