<svg width="22" height="23" viewBox="0 0 22 23" fill="none" xmlns="http://www.w3.org/2000/svg">
<path d="M10.308 1.65798C10.5646 1.04321 11.4355 1.04321 11.6922 1.65798L13.8938 6.93186C13.9963 7.17756 14.2214 7.35046 14.4853 7.38617L20.2876 8.17149C20.9378 8.25949 21.1696 9.08098 20.6612 9.49579L16.181 13.1518C15.9595 13.3326 15.86 13.6235 15.9245 13.902L17.3569 20.0919C17.512 20.762 16.7584 21.27 16.1953 20.8748L11.4309 17.5309C11.1724 17.3494 10.8278 17.3494 10.5692 17.5309L5.80477 20.8749C5.24173 21.27 4.48814 20.7621 4.64321 20.0919L6.07552 13.902C6.13996 13.6235 6.04049 13.3326 5.81901 13.1518L1.33887 9.49579C0.830544 9.08097 1.06229 8.25949 1.71246 8.17149L7.51486 7.38617C7.77869 7.35046 8.00382 7.17756 8.10638 6.93186L10.308 1.65798Z" stroke="#7B7B84" stroke-width="2" stroke-miterlimit="3.3292" stroke-linecap="round" stroke-linejoin="round"/>
</svg>
