<svg width="240" height="240" viewBox="0 0 240 240" fill="none" xmlns="http://www.w3.org/2000/svg">
<circle opacity="0.2" cx="120" cy="120" r="120" fill="#F25A5A"/>
<circle opacity="0.4" cx="120" cy="120" r="90" fill="#F25A5A"/>
<circle cx="120" cy="120" r="60" fill="#F25A5A"/>
<path fill-rule="evenodd" clip-rule="evenodd" d="M148.26 91.7409C149.692 93.1729 149.692 95.4945 148.26 96.9264L96.9264 148.26C95.4945 149.692 93.1729 149.692 91.7409 148.26C90.309 146.828 90.309 144.506 91.7409 143.074L143.074 91.7409C144.506 90.309 146.828 90.309 148.26 91.7409Z" fill="white"/>
<path fill-rule="evenodd" clip-rule="evenodd" d="M91.7409 91.7409C93.1729 90.309 95.4945 90.309 96.9264 91.7409L148.26 143.074C149.692 144.506 149.692 146.828 148.26 148.26C146.828 149.692 144.506 149.692 143.074 148.26L91.7409 96.9264C90.309 95.4945 90.309 93.1729 91.7409 91.7409Z" fill="white"/>
</svg>
