<svg width="24" height="24" viewBox="0 0 24 24" fill="none" xmlns="http://www.w3.org/2000/svg">
<path d="M24 17.028C24 21.396 21.396 24 17.028 24H15.6C14.94 24 14.4 23.46 14.4 22.8V15.876C14.4 15.552 14.664 15.276 14.988 15.276L17.1 15.24C17.268 15.228 17.412 15.108 17.448 14.94L17.868 12.648C17.904 12.432 17.736 12.228 17.508 12.228L14.952 12.264C14.616 12.264 14.352 12 14.34 11.676L14.292 8.736C14.292 8.544 14.448 8.37601 14.652 8.37601L17.532 8.328C17.736 8.328 17.892 8.17202 17.892 7.96802L17.844 5.08799C17.844 4.88399 17.688 4.728 17.484 4.728L14.244 4.77601C12.252 4.81201 10.668 6.444 10.704 8.436L10.764 11.736C10.776 12.072 10.512 12.336 10.176 12.348L8.736 12.372C8.532 12.372 8.37601 12.528 8.37601 12.732L8.41201 15.012C8.41201 15.216 8.568 15.372 8.772 15.372L10.212 15.348C10.548 15.348 10.812 15.612 10.824 15.936L10.932 22.776C10.944 23.448 10.404 24 9.73198 24H6.972C2.604 24 0 21.396 0 17.016V6.972C0 2.604 2.604 0 6.972 0H17.028C21.396 0 24 2.604 24 6.972V17.028V17.028Z" fill="white"/>
</svg>
