<svg width="40" height="39" viewBox="0 0 40 39" fill="none" xmlns="http://www.w3.org/2000/svg">
<g filter="url(#filter0_b_0_10)">
<rect width="40" height="39" rx="12" fill="url(#paint0_linear_0_10)" fill-opacity="0.8"/>
<g clip-path="url(#clip0_0_10)">
<path d="M26.7307 14.1582C25.9025 13.2599 24.766 12.7651 23.5304 12.7651C22.6068 12.7651 21.761 13.0571 21.0163 13.6329C20.6406 13.9236 20.3002 14.2792 20 14.6942C19.6999 14.2793 19.3594 13.9236 18.9835 13.6329C18.239 13.0571 17.3932 12.7651 16.4696 12.7651C15.234 12.7651 14.0974 13.2599 13.2692 14.1582C12.4508 15.046 12 16.2589 12 17.5736C12 18.9267 12.5043 20.1654 13.5869 21.4718C14.5554 22.6404 15.9474 23.8267 17.5593 25.2003C18.1097 25.6695 18.7337 26.2012 19.3815 26.7676C19.5526 26.9175 19.7725 27.0001 20 27C20.2277 27 20.4474 26.9175 20.6183 26.7678C21.2661 26.2013 21.8904 25.6693 22.441 25.2C24.0528 23.8265 25.4447 22.6404 26.4132 21.4717C27.4958 20.1655 28 18.9268 28 17.5735C28 16.2589 27.5492 15.046 26.7307 14.1582Z" fill="url(#paint1_linear_0_10)"/>
</g>
<rect x="0.5" y="0.5" width="39" height="38" rx="11.5" stroke="#F9F2A6" stroke-opacity="0.4"/>
</g>
<defs>
<filter id="filter0_b_0_10" x="-24" y="-24" width="88" height="87" filterUnits="userSpaceOnUse" color-interpolation-filters="sRGB">
<feFlood flood-opacity="0" result="BackgroundImageFix"/>
<feGaussianBlur in="BackgroundImageFix" stdDeviation="12"/>
<feComposite in2="SourceAlpha" operator="in" result="effect1_backgroundBlur_0_10"/>
<feBlend mode="normal" in="SourceGraphic" in2="effect1_backgroundBlur_0_10" result="shape"/>
</filter>
<linearGradient id="paint0_linear_0_10" x1="31.7557" y1="35.2758" x2="9.01728" y2="3.1766" gradientUnits="userSpaceOnUse">
<stop offset="0.338542" stop-color="#0B0B0B"/>
<stop offset="1" stop-color="#161A18"/>
</linearGradient>
<linearGradient id="paint1_linear_0_10" x1="12" y1="12.7651" x2="29.063" y2="14.1799" gradientUnits="userSpaceOnUse">
<stop stop-color="#FDCD9D"/>
<stop offset="1" stop-color="#F7EF82"/>
</linearGradient>
<clipPath id="clip0_0_10">
<rect width="16" height="15" fill="white" transform="translate(12 12)"/>
</clipPath>
</defs>
</svg>
