<svg width="42" height="42" viewBox="0 0 42 42" fill="none" xmlns="http://www.w3.org/2000/svg">
<g filter="url(#filter0_b_261_7301)">
<path d="M27.1875 21C27.1875 21.1823 27.1151 21.3572 26.9861 21.4861C26.8572 21.6151 26.6823 21.6875 26.5 21.6875H15.5C15.3177 21.6875 15.1428 21.6151 15.0139 21.4861C14.8849 21.3572 14.8125 21.1823 14.8125 21C14.8125 20.8177 14.8849 20.6428 15.0139 20.5139C15.1428 20.3849 15.3177 20.3125 15.5 20.3125H26.5C26.6823 20.3125 26.8572 20.3849 26.9861 20.5139C27.1151 20.6428 27.1875 20.8177 27.1875 21ZM29.9375 16.1875H12.0625C11.8802 16.1875 11.7053 16.2599 11.5764 16.3889C11.4474 16.5178 11.375 16.6927 11.375 16.875C11.375 17.0573 11.4474 17.2322 11.5764 17.3611C11.7053 17.4901 11.8802 17.5625 12.0625 17.5625H29.9375C30.1198 17.5625 30.2947 17.4901 30.4236 17.3611C30.5526 17.2322 30.625 17.0573 30.625 16.875C30.625 16.6927 30.5526 16.5178 30.4236 16.3889C30.2947 16.2599 30.1198 16.1875 29.9375 16.1875ZM23.0625 24.4375H18.9375C18.7552 24.4375 18.5803 24.5099 18.4514 24.6389C18.3224 24.7678 18.25 24.9427 18.25 25.125C18.25 25.3073 18.3224 25.4822 18.4514 25.6111C18.5803 25.7401 18.7552 25.8125 18.9375 25.8125H23.0625C23.2448 25.8125 23.4197 25.7401 23.5486 25.6111C23.6776 25.4822 23.75 25.3073 23.75 25.125C23.75 24.9427 23.6776 24.7678 23.5486 24.6389C23.4197 24.5099 23.2448 24.4375 23.0625 24.4375Z" fill="#C3C3C3"/>
<rect x="0.5" y="0.5" width="41" height="41" rx="11.5" stroke="#7B7B84"/>
</g>
<defs>
<filter id="filter0_b_261_7301" x="-24" y="-24" width="90" height="90" filterUnits="userSpaceOnUse" color-interpolation-filters="sRGB">
<feFlood flood-opacity="0" result="BackgroundImageFix"/>
<feGaussianBlur in="BackgroundImageFix" stdDeviation="12"/>
<feComposite in2="SourceAlpha" operator="in" result="effect1_backgroundBlur_261_7301"/>
<feBlend mode="normal" in="SourceGraphic" in2="effect1_backgroundBlur_261_7301" result="shape"/>
</filter>
</defs>
</svg>
