<svg width="20" height="20" viewBox="0 0 20 20" fill="none" xmlns="http://www.w3.org/2000/svg">
<path d="M10.0002 14.8997C9.79187 14.8997 9.57521 14.8247 9.40854 14.6747L7.25854 12.7914C6.45021 12.083 6.34187 10.8664 7.01687 10.0247C7.70021 9.17471 8.91687 9.01638 9.79187 9.67471L10.0002 9.83304L10.2169 9.66638C11.0919 9.00804 12.3085 9.16638 12.9919 10.0164C13.6669 10.858 13.5585 12.0747 12.7502 12.783L10.6002 14.6664C10.4252 14.8247 10.2085 14.8997 10.0002 14.8997ZM8.07521 11.8497L10.0002 13.533L11.9252 11.8497C12.2335 11.583 12.2752 11.1247 12.0169 10.808C11.7585 10.483 11.3002 10.4247 10.9669 10.6747L10.3752 11.1164C10.1502 11.283 9.85021 11.283 9.62521 11.1164L9.03354 10.6747C8.70854 10.4247 8.24187 10.483 7.98354 10.808C7.73354 11.1247 7.77521 11.583 8.07521 11.8497Z" fill="white"/>
<path d="M14.1665 18.9577H5.83317C2.15817 18.9577 1.0415 17.841 1.0415 14.166V5.83268C1.0415 2.15768 2.15817 1.04102 5.83317 1.04102H7.08317C8.5415 1.04102 8.99984 1.51602 9.58317 2.29102L10.8332 3.95768C11.1082 4.32435 11.1498 4.37435 11.6665 4.37435H14.1665C17.8415 4.37435 18.9582 5.49102 18.9582 9.16602V14.166C18.9582 17.841 17.8415 18.9577 14.1665 18.9577ZM5.83317 2.29102C2.84984 2.29102 2.2915 2.85768 2.2915 5.83268V14.166C2.2915 17.141 2.84984 17.7077 5.83317 17.7077H14.1665C17.1498 17.7077 17.7082 17.141 17.7082 14.166V9.16602C17.7082 6.19102 17.1498 5.62435 14.1665 5.62435H11.6665C10.5998 5.62435 10.2498 5.25768 9.83317 4.70768L8.58317 3.04102C8.14984 2.46602 8.0165 2.29102 7.08317 2.29102H5.83317Z" fill="white"/>
</svg>
