<svg width="199" height="32" viewBox="0 0 199 32" fill="none" xmlns="http://www.w3.org/2000/svg">
    <g clip-path="url(#clip0_278_2485)">
        <path
            d="M23.7863 22.8568H7.93444L6.60826 20.5731L5.2849 18.2866H0L1.32052 20.5731L2.64387 22.8568L3.96722 25.1434L5.28774 27.4299L6.60826 29.7136L7.93444 32.0001H13.2137L11.9017 29.7136L10.5811 27.4299H26.45L25.1068 25.1434L23.7863 22.8568Z"
            fill="white" />
        <path
            d="M35.6795 16.0001L34.359 13.7136L33.0356 16.0001L31.7151 18.2866L30.3946 16.0001L29.0712 13.7136L27.7507 11.4299L26.4302 9.14336L25.1068 6.85684L23.7863 4.57031L22.4658 6.85684L21.1425 9.14336L22.4658 11.4299L23.7863 13.7136L25.1068 16.0001L26.4302 18.2866L27.7507 20.5731L29.0712 22.8568L27.7507 25.1434L26.4302 27.4299L27.7507 29.7136L29.0712 32.0001L30.3946 29.7136L31.7151 27.4299L33.0356 25.1434L34.359 22.8568L35.6795 20.5731L37 18.2866L35.6795 16.0001Z"
            fill="white" />
        <path
            d="M10.5726 18.2865L11.9016 16L13.2221 13.7135L14.5455 11.4298L15.8688 9.14326L17.1894 6.85674L18.5127 4.57022H23.7863L25.1068 2.28652L26.4301 0H10.5613L9.24925 2.28652L7.9344 4.57022H13.2136L11.9016 6.85674L10.5811 9.14326L9.25775 11.4298L7.9344 13.7135L6.61388 16L5.29053 18.2865H10.5726Z"
            fill="white" />
    </g>
    <path
        d="M54.7353 6.49365V26.4937H50.6242V6.49365H54.7353ZM60.8952 6.49365V9.72167H44.5605V6.49365H60.8952Z"
        fill="white" />
    <path
        d="M63.2464 6.49365H70.7124C72.2432 6.49365 73.5586 6.72259 74.6586 7.18047C75.7677 7.63834 76.6202 8.316 77.216 9.21343C77.8119 10.1109 78.1098 11.2143 78.1098 12.5239C78.1098 13.5953 77.9264 14.5156 77.5598 15.2849C77.2023 16.0449 76.6936 16.6814 76.0336 17.1942C75.3828 17.6979 74.6174 18.1008 73.7374 18.403L72.4312 19.0898H65.9413L65.9138 15.8755H70.7399C71.4641 15.8755 72.0645 15.7473 72.5412 15.4909C73.0178 15.2345 73.3753 14.8774 73.6136 14.4195C73.8611 13.9616 73.9849 13.4305 73.9849 12.8261C73.9849 12.185 73.8657 11.631 73.6274 11.164C73.3891 10.6969 73.027 10.3398 72.5412 10.0926C72.0553 9.8453 71.4458 9.72167 70.7124 9.72167H67.3713V26.4937H63.2464V6.49365ZM74.4386 26.4937L69.8737 17.5788L74.2324 17.5513L78.8523 26.3013V26.4937H74.4386Z"
        fill="white" />
    <path d="M85.6721 6.49365V26.4937H81.5609V6.49365H85.6721Z" fill="white" />
    <path
        d="M94.3792 26.4937H90.1993L90.2268 24.3371H94.3792C95.8092 24.3371 97.0008 24.0394 97.9541 23.4442C98.9074 22.8398 99.6224 21.9973 100.099 20.9167C100.585 19.827 100.828 18.5541 100.828 17.098V15.8755C100.828 14.7308 100.69 13.7143 100.415 12.8261C100.14 11.9286 99.737 11.1731 99.2053 10.5596C98.6737 9.93688 98.0229 9.46526 97.2529 9.14475C96.4921 8.82424 95.6167 8.66398 94.6267 8.66398H90.1168V6.49365H94.6267C95.9375 6.49365 97.1337 6.71343 98.2154 7.15299C99.297 7.5834 100.227 8.21069 101.007 9.03486C101.795 9.84988 102.4 10.8389 102.821 12.0019C103.243 13.1557 103.454 14.4561 103.454 15.903V17.098C103.454 18.5449 103.243 19.8499 102.821 21.0129C102.4 22.1667 101.79 23.1512 100.993 23.9662C100.204 24.7812 99.2512 25.4085 98.1329 25.848C97.0237 26.2785 95.7725 26.4937 94.3792 26.4937ZM91.6155 6.49365V26.4937H88.9618V6.49365H91.6155Z"
        fill="white" />
    <path
        d="M120.16 24.3371V26.4937H109.559V24.3371H120.16ZM110.095 6.49365V26.4937H107.441V6.49365H110.095ZM118.757 15.0926V17.2491H109.559V15.0926H118.757ZM120.022 6.49365V8.66398H109.559V6.49365H120.022Z"
        fill="white" />
    <path
        d="M138.846 6.49365V26.4937H136.178L126.1 11.0678V26.4937H123.446V6.49365H126.1L136.219 21.9607V6.49365H138.846Z"
        fill="white" />
    <path
        d="M150.533 6.49365V26.4937H147.92V6.49365H150.533ZM156.968 6.49365V8.66398H141.499V6.49365H156.968Z"
        fill="white" />
    <path d="M162.784 6.49365V26.4937H160.13V6.49365H162.784Z" fill="white" />
    <path
        d="M174.595 6.49365V26.4937H171.982V6.49365H174.595ZM181.03 6.49365V8.66398H165.561V6.49365H181.03Z"
        fill="white" />
    <path
        d="M185.141 6.49365L190.338 16.5349L195.549 6.49365H198.561L191.658 19.0211V26.4937H189.005V19.0211L182.102 6.49365H185.141Z"
        fill="white" />
    <defs>
        <clipPath id="clip0_278_2485">
            <rect width="37" height="32" fill="white" />
        </clipPath>
    </defs>
</svg>