<svg width="15" height="15" viewBox="0 0 15 15" fill="none" xmlns="http://www.w3.org/2000/svg">
<path d="M7.5 0C6.01664 0 4.56659 0.439867 3.33323 1.26398C2.09986 2.08809 1.13856 3.25943 0.570907 4.62987C0.0032497 6.00032 -0.145275 7.50832 0.144114 8.96318C0.433503 10.418 1.14781 11.7544 2.1967 12.8033C3.2456 13.8522 4.58197 14.5665 6.03682 14.8559C7.49168 15.1453 8.99968 14.9968 10.3701 14.4291C11.7406 13.8614 12.9119 12.9001 13.736 11.6668C14.5601 10.4334 15 8.98336 15 7.5C14.9978 5.51157 14.2069 3.60522 12.8008 2.19918C11.3948 0.793148 9.48843 0.00224973 7.5 0ZM7.5 14C6.4675 14 5.3865 12.669 4.85 10.5H10.15C9.6135 12.669 8.5325 14 7.5 14ZM4.647 9.5C4.451 8.17387 4.451 6.82613 4.647 5.5H10.353C10.4522 6.16203 10.5013 6.83059 10.5 7.5C10.5013 8.16941 10.4522 8.83797 10.353 9.5H4.647ZM1 7.5C1.00037 6.82077 1.10768 6.14584 1.318 5.5H3.643C3.45234 6.82652 3.45234 8.17348 3.643 9.5H1.318C1.10768 8.85416 1.00037 8.17922 1 7.5ZM7.5 1C8.5325 1 9.6135 2.331 10.15 4.5H4.85C5.3865 2.331 6.4675 1 7.5 1ZM11.357 5.5H13.682C14.1059 6.79964 14.1059 8.20035 13.682 9.5H11.357C11.4518 8.83754 11.4996 8.1692 11.5 7.5C11.4996 6.83079 11.4518 6.16245 11.357 5.5ZM13.2605 4.5H11.177C10.9545 3.41251 10.5182 2.38004 9.8935 1.4625C11.3426 2.0404 12.5369 3.11788 13.2605 4.5ZM5.1065 1.4625C4.48179 2.38004 4.04551 3.41251 3.823 4.5H1.7395C2.46306 3.11788 3.65743 2.0404 5.1065 1.4625ZM1.7395 10.5H3.823C4.04551 11.5875 4.48179 12.62 5.1065 13.5375C3.65743 12.9596 2.46306 11.8821 1.7395 10.5ZM9.8935 13.5375C10.5182 12.62 10.9545 11.5875 11.177 10.5H13.2605C12.5369 11.8821 11.3426 12.9596 9.8935 13.5375Z" fill="white"/>
</svg>
