<svg width="20" height="21" viewBox="0 0 20 21" fill="none" xmlns="http://www.w3.org/2000/svg">
<path d="M10 17.375C6.20833 17.375 3.125 14.2917 3.125 10.5C3.125 6.70833 6.20833 3.625 10 3.625C13.7917 3.625 16.875 6.70833 16.875 10.5C16.875 14.2917 13.7917 17.375 10 17.375ZM10 4.875C6.9 4.875 4.375 7.4 4.375 10.5C4.375 13.6 6.9 16.125 10 16.125C13.1 16.125 15.625 13.6 15.625 10.5C15.625 7.4 13.1 4.875 10 4.875Z" fill="#469175"/>
<path d="M10 13.625C8.275 13.625 6.875 12.225 6.875 10.5C6.875 8.775 8.275 7.375 10 7.375C11.725 7.375 13.125 8.775 13.125 10.5C13.125 12.225 11.725 13.625 10 13.625ZM10 8.625C8.96667 8.625 8.125 9.46667 8.125 10.5C8.125 11.5333 8.96667 12.375 10 12.375C11.0333 12.375 11.875 11.5333 11.875 10.5C11.875 9.46667 11.0333 8.625 10 8.625Z" fill="#469175"/>
<path d="M10 4.45835C9.65833 4.45835 9.375 4.17502 9.375 3.83335V2.16669C9.375 1.82502 9.65833 1.54169 10 1.54169C10.3417 1.54169 10.625 1.82502 10.625 2.16669V3.83335C10.625 4.17502 10.3417 4.45835 10 4.45835Z" fill="#469175"/>
<path d="M3.33341 11.125H1.66675C1.32508 11.125 1.04175 10.8417 1.04175 10.5C1.04175 10.1583 1.32508 9.875 1.66675 9.875H3.33341C3.67508 9.875 3.95841 10.1583 3.95841 10.5C3.95841 10.8417 3.67508 11.125 3.33341 11.125Z" fill="#469175"/>
<path d="M10 19.4584C9.65833 19.4584 9.375 19.175 9.375 18.8334V17.1667C9.375 16.825 9.65833 16.5417 10 16.5417C10.3417 16.5417 10.625 16.825 10.625 17.1667V18.8334C10.625 19.175 10.3417 19.4584 10 19.4584Z" fill="#469175"/>
<path d="M18.3334 11.125H16.6667C16.3251 11.125 16.0417 10.8417 16.0417 10.5C16.0417 10.1583 16.3251 9.875 16.6667 9.875H18.3334C18.6751 9.875 18.9584 10.1583 18.9584 10.5C18.9584 10.8417 18.6751 11.125 18.3334 11.125Z" fill="#469175"/>
</svg>
