<svg width="20" height="20" viewBox="0 0 20 20" fill="none" xmlns="http://www.w3.org/2000/svg">
<g id="Frame">
<g id="Group">
<g id="Vector">
<path d="M18.4134 2.83508C17.3781 1.71219 15.9575 1.09375 14.413 1.09375C13.2585 1.09375 12.2013 1.45875 11.2704 2.17852C10.8008 2.5418 10.3752 2.98633 10 3.50508C9.62492 2.98645 9.19922 2.5418 8.72941 2.17852C7.79875 1.45875 6.74148 1.09375 5.58699 1.09375C4.0425 1.09375 2.62176 1.71219 1.58645 2.83508C0.563516 3.94484 0 5.46098 0 7.10434C0 8.79574 0.630351 10.3441 1.98363 11.9771C3.19426 13.4378 4.93422 14.9207 6.94914 16.6377C7.63719 17.2241 8.41707 17.8888 9.22684 18.5968C9.4408 18.7842 9.71557 18.8875 10 18.8873C10.2846 18.8873 10.5592 18.7842 10.7729 18.5971C11.5826 17.8889 12.363 17.224 13.0513 16.6373C15.0659 14.9205 16.8059 13.4378 18.0165 11.9769C19.3698 10.3441 20 8.79578 20 7.10418C20 5.46098 19.4365 3.94484 18.4134 2.83508Z" fill="#DBDBDE"/>
<path d="M18.4134 2.83508C17.3781 1.71219 15.9575 1.09375 14.413 1.09375C13.2585 1.09375 12.2013 1.45875 11.2704 2.17852C10.8008 2.5418 10.3752 2.98633 10 3.50508C9.62492 2.98645 9.19922 2.5418 8.72941 2.17852C7.79875 1.45875 6.74148 1.09375 5.58699 1.09375C4.0425 1.09375 2.62176 1.71219 1.58645 2.83508C0.563516 3.94484 0 5.46098 0 7.10434C0 8.79574 0.630351 10.3441 1.98363 11.9771C3.19426 13.4378 4.93422 14.9207 6.94914 16.6377C7.63719 17.2241 8.41707 17.8888 9.22684 18.5968C9.4408 18.7842 9.71557 18.8875 10 18.8873C10.2846 18.8873 10.5592 18.7842 10.7729 18.5971C11.5826 17.8889 12.363 17.224 13.0513 16.6373C15.0659 14.9205 16.8059 13.4378 18.0165 11.9769C19.3698 10.3441 20 8.79578 20 7.10418C20 5.46098 19.4365 3.94484 18.4134 2.83508Z" fill="#F25A5A"/>
</g>
</g>
</g>
</svg>
