<svg width="20" height="20" viewBox="0 0 20 20" fill="none" xmlns="http://www.w3.org/2000/svg">
<path d="M17.7082 7.62494C15.7832 4.59994 12.9665 2.85828 9.99984 2.85828C8.5165 2.85828 7.07484 3.29161 5.75817 4.09994C4.4415 4.91661 3.25817 6.10828 2.2915 7.62494C1.45817 8.93328 1.45817 11.0583 2.2915 12.3666C4.2165 15.3999 7.03317 17.1333 9.99984 17.1333C11.4832 17.1333 12.9248 16.6999 14.2415 15.8916C15.5582 15.0749 16.7415 13.8833 17.7082 12.3666C18.5415 11.0666 18.5415 8.93328 17.7082 7.62494ZM9.99984 13.3666C8.13317 13.3666 6.63317 11.8583 6.63317 9.99994C6.63317 8.14161 8.13317 6.63328 9.99984 6.63328C11.8665 6.63328 13.3665 8.14161 13.3665 9.99994C13.3665 11.8583 11.8665 13.3666 9.99984 13.3666Z" fill="#ABABB1"/>
<path d="M10 7.6167C8.69167 7.6167 7.625 8.68337 7.625 10C7.625 11.3084 8.69167 12.375 10 12.375C11.3083 12.375 12.3833 11.3084 12.3833 10C12.3833 8.6917 11.3083 7.6167 10 7.6167Z" fill="#ABABB1"/>
</svg>
