<svg width="18" height="18" viewBox="0 0 18 18" fill="none" xmlns="http://www.w3.org/2000/svg">
<path d="M9 16.5C11.071 16.5 12.9461 15.6605 14.3033 14.3033C15.6605 12.9461 16.5 11.071 16.5 9C16.5 6.92895 15.6605 5.05395 14.3033 3.6967C12.9461 2.33947 11.071 1.5 9 1.5C6.92895 1.5 5.05395 2.33947 3.6967 3.6967C2.33947 5.05395 1.5 6.92895 1.5 9C1.5 11.071 2.33947 12.9461 3.6967 14.3033C5.05395 15.6605 6.92895 16.5 9 16.5Z" fill="#438F68" stroke="#438F68" stroke-width="2" stroke-linejoin="round"/>
<path fill-rule="evenodd" clip-rule="evenodd" d="M9 4.125C9.51776 4.125 9.9375 4.54474 9.9375 5.0625C9.9375 5.58026 9.51776 6 9 6C8.48224 6 8.0625 5.58026 8.0625 5.0625C8.0625 4.54474 8.48224 4.125 9 4.125Z" fill="white"/>
<path d="M9.1875 12.75V7.5H8.8125H8.4375" stroke="white" stroke-width="1.6" stroke-linecap="round" stroke-linejoin="round"/>
<path d="M7.875 12.75H10.5" stroke="white" stroke-width="1.6" stroke-linecap="round" stroke-linejoin="round"/>
</svg>
