<svg width="24" height="24" viewBox="0 0 24 24" fill="none" xmlns="http://www.w3.org/2000/svg">
<path d="M12.0101 5.88551C11.7991 5.88551 11.5903 5.89628 11.3846 5.91735C11.179 5.93841 10.9761 5.96963 10.7768 6.01061C10.5774 6.05159 10.3816 6.10233 10.1897 6.16223L9.62639 6.36905L9.09011 6.62801L8.58404 6.93594L8.11119 7.28962L7.67486 7.68597L7.27812 8.12191L6.92406 8.59423L6.61574 9.09984L6.35664 9.63551C6.27875 9.81873 6.20948 10.0066 6.1495 10.1983C6.08953 10.3901 6.03879 10.5858 5.99773 10.785C5.95667 10.9841 5.92546 11.1867 5.90431 11.3922C5.88317 11.5977 5.87256 11.8062 5.87256 12.0171C5.87256 12.2279 5.88332 12.4364 5.90431 12.6419C5.92518 12.8458 5.95636 13.0485 5.99773 13.2493C6.03879 13.4492 6.08953 13.6441 6.1495 13.8359C6.20948 14.0277 6.27867 14.2154 6.35664 14.3987L6.61574 14.9344L6.92406 15.4399L7.27812 15.9123L7.67486 16.3482L8.11119 16.7446L8.58404 17.0983L9.09011 17.4062L9.62639 17.6652L10.1897 17.872L10.7768 18.0236C10.9777 18.0649 11.1806 18.0961 11.3846 18.1169C11.5925 18.1381 11.8012 18.1487 12.0101 18.1487C12.2212 18.1487 12.4299 18.1379 12.6355 18.1169C12.8396 18.0961 13.0425 18.0649 13.2434 18.0236L13.8306 17.872L14.3938 17.6652L14.93 17.4062L15.4362 17.0983L15.909 16.7446L16.3454 16.3482L16.7422 15.9123L17.0962 15.4399L17.4046 14.9344L17.6637 14.3987L17.8708 13.8359C17.9308 13.6441 17.9815 13.4484 18.0226 13.2493L18.116 12.6418C18.137 12.4363 18.1478 12.2278 18.1478 12.017C18.1478 11.8062 18.137 11.5977 18.116 11.3921C18.0951 11.1883 18.0639 10.9856 18.0226 10.7849C17.9815 10.585 17.9308 10.3901 17.8708 10.1982L17.6637 9.63543L17.4046 9.09976L17.0962 8.59415L16.7422 8.12184L16.3454 7.68589L15.909 7.28954L15.4362 6.93586L14.93 6.62793L14.3938 6.36898L13.8306 6.16215L13.2434 6.01053L12.6355 5.91727C12.4277 5.89605 12.219 5.88542 12.0101 5.88544V5.88551ZM12.0101 8.0019C12.1497 8.0019 12.2874 8.00881 12.423 8.0225L12.8228 8.08301L13.209 8.18143L13.5788 8.31575L13.9304 8.48413L14.261 8.68442L14.5701 8.91485L14.8551 9.17334L15.1138 9.45797L15.3445 9.76675L15.545 10.0978L15.7134 10.4492C15.7639 10.5694 15.8088 10.6927 15.8479 10.8187C15.887 10.9447 15.9198 11.0735 15.9463 11.2047C15.9728 11.3359 15.9925 11.4693 16.0068 11.6049L16.0274 12.0175C16.0274 12.1568 16.0205 12.2945 16.0068 12.4301C15.9931 12.5657 15.973 12.6992 15.9463 12.8303C15.9196 12.9614 15.8867 13.0902 15.8479 13.2163L15.7134 13.5858L15.545 13.9372L15.3445 14.2682L15.1138 14.577L14.8551 14.8616L14.5701 15.1201L14.261 15.3506L13.9304 15.5509L13.5788 15.7192L13.209 15.8536L12.8228 15.952L12.423 16.0124C12.2858 16.0262 12.1479 16.033 12.01 16.033C11.8721 16.033 11.7342 16.0262 11.597 16.0124L11.1972 15.952C11.0659 15.9254 10.9371 15.8925 10.8109 15.8536L10.4411 15.7192L10.0895 15.5509L9.75887 15.3506L9.44979 15.1201L9.16484 14.8616L8.90612 14.577L8.67546 14.2682L8.47494 13.9372L8.30656 13.5858L8.17201 13.2163L8.07359 12.8303L8.01308 12.4301C7.99932 12.293 7.99245 12.1553 7.99248 12.0175C7.99245 11.8797 7.99932 11.742 8.01308 11.6049C8.02669 11.4693 8.04691 11.3358 8.07359 11.2047C8.1 11.0745 8.13288 10.9457 8.17208 10.8188L8.30664 10.4493L8.47502 10.0979L8.67554 9.76683L8.9062 9.45805L9.16492 9.17342L9.44986 8.91492L9.75895 8.68449L10.0896 8.4842L10.4412 8.31582C10.5622 8.265 10.6856 8.22017 10.8111 8.1815L11.1973 8.08309C11.3286 8.05649 11.4622 8.03619 11.5972 8.02258C11.7344 8.00883 11.8723 8.00195 12.0102 8.00197L12.0101 8.0019Z" fill="white"/>
<path d="M18.3967 4.1413C18.3479 4.14131 18.2992 4.14377 18.2507 4.14868C18.2023 4.15358 18.154 4.16092 18.1063 4.17067C18.0585 4.18041 18.0113 4.19254 17.9647 4.20703C17.9182 4.22153 17.8724 4.23837 17.8275 4.25747C17.7826 4.2766 17.7387 4.29797 17.6959 4.32152C17.6532 4.34502 17.6116 4.37065 17.5714 4.39833C17.5311 4.42604 17.4923 4.45575 17.455 4.48736C17.4178 4.51894 17.3821 4.55238 17.3482 4.58755C17.3142 4.62273 17.282 4.65961 17.2518 4.69803C17.2215 4.73646 17.1931 4.77639 17.1668 4.81767C17.1405 4.85892 17.1162 4.90146 17.0941 4.94515C17.072 4.98886 17.0521 5.03367 17.0344 5.07939C17.0167 5.1251 17.0014 5.17168 16.9883 5.21894C16.9753 5.2662 16.9646 5.31408 16.9564 5.36241C16.9481 5.41073 16.9422 5.45943 16.9387 5.50834C16.9363 5.54299 16.9351 5.57771 16.9351 5.61245C16.9351 5.66151 16.9375 5.71055 16.9424 5.75938C16.9472 5.80818 16.9545 5.8567 16.9642 5.90477C16.9739 5.95284 16.9859 6.00038 17.0003 6.04724C17.0147 6.09411 17.0315 6.14022 17.0505 6.1854C17.0695 6.2306 17.0907 6.27482 17.114 6.31788C17.1374 6.36094 17.1629 6.40279 17.1904 6.44328C17.2179 6.48375 17.2474 6.5228 17.2788 6.5603C17.3102 6.59783 17.3434 6.63376 17.3784 6.66794C17.4134 6.70211 17.45 6.73449 17.4882 6.76498C17.5264 6.79548 17.566 6.82404 17.607 6.85055C17.6481 6.87706 17.6904 6.90149 17.7338 6.92375C17.7773 6.94601 17.8217 6.96608 17.8672 6.98387C17.9126 7.00164 17.9588 7.01712 18.0058 7.03023C18.0527 7.04333 18.1003 7.05406 18.1483 7.06237C18.1963 7.07072 18.2447 7.07665 18.2933 7.08013C18.3278 7.08259 18.3622 7.08382 18.3967 7.08382C18.4455 7.08384 18.4942 7.0814 18.5427 7.07652C18.5912 7.07162 18.6394 7.06428 18.6871 7.05453C18.7349 7.04479 18.7821 7.03265 18.8287 7.01816C18.8753 7.00366 18.9211 6.98683 18.9659 6.96773C19.0108 6.94862 19.0547 6.92727 19.0975 6.90376C19.1403 6.88023 19.1818 6.85457 19.222 6.82687C19.2623 6.79919 19.3011 6.7695 19.3384 6.73791C19.3756 6.70631 19.4113 6.67284 19.4452 6.63765C19.4792 6.60246 19.5114 6.56559 19.5417 6.52717C19.572 6.48874 19.6003 6.44881 19.6266 6.40753C19.6529 6.36626 19.6772 6.32369 19.6993 6.27997C19.7214 6.23626 19.7413 6.19145 19.759 6.14573C19.7767 6.10002 19.792 6.05344 19.8051 6.00618C19.8181 5.95892 19.8288 5.91104 19.8371 5.86271C19.8453 5.81439 19.8512 5.76569 19.8547 5.71678C19.8571 5.68213 19.8584 5.64741 19.8584 5.61268C19.8584 5.56363 19.8559 5.51462 19.8511 5.46582C19.8462 5.41702 19.8389 5.3685 19.8292 5.32043C19.8195 5.27236 19.8075 5.22481 19.7931 5.17796C19.7787 5.13109 19.7619 5.08498 19.743 5.03979C19.724 4.9946 19.7027 4.95038 19.6794 4.90732C19.656 4.86426 19.6305 4.82241 19.603 4.78192C19.5755 4.74142 19.5459 4.70234 19.5145 4.66482C19.4832 4.62729 19.45 4.59136 19.415 4.55718C19.3801 4.52301 19.3434 4.49063 19.3052 4.46015C19.2671 4.42967 19.2274 4.40113 19.1864 4.37465C19.1454 4.34814 19.103 4.32371 19.0596 4.30145C19.0162 4.27918 18.9717 4.25912 18.9263 4.24133C18.8809 4.22356 18.8346 4.20808 18.7876 4.19496C18.7407 4.18184 18.6931 4.17109 18.6451 4.16275C18.5971 4.15442 18.5487 4.14852 18.5001 4.14506C18.4657 4.14261 18.4312 4.14137 18.3967 4.14137V4.1413Z" fill="white"/>
<path d="M10.8465 0.021708C10.1789 0.0206316 9.58323 0.0233991 9.0481 0.030934L7.61339 0.0693773C7.18836 0.0878301 6.81285 0.111894 6.47578 0.143033C6.30724 0.158564 6.14824 0.175941 5.99754 0.195085C5.85414 0.21316 5.71112 0.234207 5.56859 0.25821C5.43289 0.281276 5.3041 0.306186 5.18062 0.33325C5.05714 0.360314 4.9392 0.389533 4.82541 0.420902C4.71416 0.451577 4.60379 0.485318 4.49441 0.522086C4.38723 0.558223 4.28266 0.596512 4.1794 0.637416C3.97289 0.719223 3.77144 0.811024 3.564 0.913898C3.40439 0.993092 3.25692 1.07328 3.11683 1.15817C2.97674 1.24305 2.84404 1.3327 2.7141 1.43035C2.58028 1.5314 2.4513 1.6387 2.32759 1.75189C2.19827 1.86968 2.06617 1.99923 1.92893 2.14401C1.75648 2.32492 1.60662 2.49361 1.47361 2.65915C1.4071 2.74188 1.34482 2.82369 1.28616 2.90595C1.22814 2.98703 1.17268 3.0699 1.11985 3.15445C1.06757 3.23826 1.01806 3.3236 0.970694 3.41141C0.922593 3.50072 0.877133 3.59144 0.834374 3.68343C0.746877 3.87134 0.665223 4.07371 0.583723 4.2996C0.523261 4.4666 0.46912 4.63582 0.421416 4.8069C0.372746 4.98174 0.329459 5.16465 0.290862 5.36248C0.252265 5.56031 0.218589 5.77306 0.188987 6.00833C0.157089 6.26623 0.131606 6.52488 0.112562 6.78404C0.0910337 7.06898 0.073196 7.38253 0.0585875 7.73151L0.0239887 8.89189L0.00538204 10.3064L0 12.0161L0.0157618 14.5024L0.0649692 16.3861L0.102874 17.1219L0.150237 17.7316C0.165419 17.896 0.184415 18.0599 0.20721 18.2234C0.227969 18.3685 0.250266 18.4956 0.274255 18.6055C0.322929 18.829 0.380486 19.0506 0.446788 19.2695C0.510271 19.4791 0.58287 19.6859 0.664377 19.8892C0.744493 20.0883 0.832144 20.2804 0.927484 20.4652C1.02282 20.6501 1.12585 20.8277 1.23657 20.9983C1.34728 21.1689 1.46569 21.3325 1.59209 21.4891C1.71835 21.6458 1.85265 21.7958 1.99444 21.9385C2.13645 22.0815 2.28622 22.2176 2.44407 22.3469C2.60379 22.4777 2.76981 22.6006 2.94153 22.7152C3.10091 22.8217 3.25861 22.9193 3.41746 23.0089C3.57631 23.0985 3.73654 23.1797 3.90123 23.2536C4.06592 23.3275 4.23476 23.394 4.41114 23.4538C4.58752 23.5136 4.77128 23.5669 4.96549 23.6141C5.15971 23.6613 5.3653 23.7027 5.58289 23.7388C5.80048 23.775 6.03306 23.806 6.28156 23.8326C6.53006 23.8593 6.79516 23.8814 7.08003 23.8998C7.36489 23.9183 7.66937 23.9331 7.99652 23.9449C8.50189 23.9632 9.26691 23.9739 10.1491 23.978L13.0051 23.9722L15.7095 23.9343L16.7378 23.9054L17.4077 23.8709C17.5514 23.8593 17.6922 23.8454 17.8279 23.8292C17.9637 23.813 18.0977 23.7944 18.2281 23.7734C18.3585 23.7523 18.4859 23.7288 18.6112 23.7026C18.735 23.6769 18.8581 23.6481 18.9805 23.6163C19.1017 23.5855 19.2212 23.5506 19.3394 23.5134C19.4577 23.4763 19.5747 23.4361 19.691 23.3931C19.808 23.3498 19.924 23.3036 20.0387 23.2546C20.1543 23.2054 20.2697 23.1528 20.3855 23.097C20.5633 23.0113 20.7065 22.9399 20.8322 22.8702C20.9504 22.8053 21.0643 22.7328 21.1731 22.6531C21.2804 22.574 21.3872 22.4841 21.5102 22.3707C21.6332 22.2574 21.7726 22.1208 21.9452 21.9482C22.0969 21.7965 22.2248 21.6648 22.3352 21.5449C22.4455 21.425 22.5385 21.3171 22.62 21.2132C22.6977 21.1146 22.77 21.0118 22.8368 20.9055C22.9019 20.8017 22.9619 20.6939 23.023 20.5743C23.115 20.3944 23.1968 20.2278 23.27 20.067C23.3412 19.9121 23.4062 19.7544 23.4649 19.5944C23.5227 19.4355 23.5728 19.274 23.6149 19.1103C23.6582 18.942 23.6956 18.7642 23.7279 18.5692C23.7602 18.3742 23.7875 18.162 23.8112 17.9251C23.8349 17.6881 23.855 17.4262 23.8727 17.132L23.9196 16.1442L23.9599 14.9158L23.9886 13.5472L23.9997 12.1162L23.974 9.30561L23.9397 8.04675L23.8928 6.96588L23.8343 6.1232C23.8131 5.88869 23.7902 5.70401 23.7659 5.57915C23.739 5.44118 23.709 5.30385 23.6758 5.16727C23.6435 5.03436 23.608 4.90226 23.5693 4.77107C23.5316 4.64326 23.4906 4.51643 23.4464 4.39071C23.4028 4.26654 23.3565 4.14498 23.308 4.02604C23.2596 3.9071 23.2072 3.79092 23.1526 3.6772C23.098 3.56349 23.0408 3.45254 22.9807 3.34413C22.9207 3.23572 22.8581 3.13 22.7927 3.0269C22.7272 2.92379 22.6591 2.8233 22.5881 2.7255C22.5176 2.62801 22.444 2.53276 22.3675 2.43987C22.2913 2.34749 22.2123 2.25754 22.1305 2.17015C22.0488 2.08287 21.9644 1.9982 21.8773 1.91627C21.7902 1.83431 21.7005 1.75496 21.6079 1.67823C21.515 1.60124 21.4197 1.52717 21.3222 1.4561C21.2236 1.38432 21.1229 1.31555 21.0202 1.24989C20.916 1.18331 20.8099 1.11982 20.702 1.05952C20.5922 0.998213 20.4807 0.940063 20.3676 0.885143C20.1798 0.793879 20.0062 0.712919 19.8358 0.641107C19.6682 0.569837 19.4974 0.506539 19.3238 0.451426C19.1493 0.396453 18.9676 0.349321 18.7677 0.308648C18.5678 0.267975 18.3498 0.234068 18.1031 0.205236C17.8564 0.176403 17.5809 0.153107 17.2658 0.133732C16.9507 0.114356 16.5964 0.0991316 16.1917 0.0868298L14.8165 0.0560756L13.076 0.035547L10.8472 0.0218605L10.8465 0.021708ZM12.004 2.13624L15.2181 2.15454L16.4306 2.17792C16.7645 2.1873 17.0193 2.19829 17.1687 2.21098C17.3632 2.22735 17.5485 2.24788 17.7258 2.27249C17.8958 2.29597 18.0651 2.32518 18.2332 2.36006C18.3947 2.39389 18.5487 2.43233 18.6961 2.4757C18.8435 2.51906 18.9842 2.56765 19.1193 2.6214C19.2544 2.67514 19.3836 2.73427 19.5079 2.79901C19.6312 2.86326 19.7511 2.93396 19.867 3.01083C19.9823 3.08733 20.0935 3.16975 20.2014 3.25856C20.3094 3.34736 20.414 3.44255 20.5162 3.54434C20.6241 3.65175 20.7236 3.76116 20.8153 3.87403C20.9067 3.9862 20.9912 4.10377 21.0685 4.2261C21.1466 4.35017 21.217 4.47894 21.2793 4.61168C21.343 4.747 21.4002 4.89001 21.4515 5.04202C21.5029 5.19402 21.5486 5.35556 21.5892 5.52817C21.6316 5.71117 21.6671 5.8957 21.6957 6.08137C21.7265 6.2782 21.7528 6.4881 21.7751 6.71284C21.7974 6.93758 21.8158 7.17724 21.831 7.43365C21.8432 7.63933 21.8538 7.91074 21.8628 8.23128L21.8853 9.32422L21.9025 12.0014L21.8829 14.6761L21.8594 15.7659L21.827 16.5585C21.8046 16.9296 21.7809 17.2416 21.7526 17.5132C21.7384 17.649 21.723 17.7746 21.7059 17.8925C21.69 18.0038 21.671 18.1147 21.6491 18.2251C21.6291 18.3257 21.6059 18.4257 21.5795 18.5249C21.5543 18.6196 21.5258 18.7134 21.4943 18.8061C21.4625 18.8993 21.4279 18.9915 21.3906 19.0826C21.3511 19.1788 21.3094 19.2741 21.2656 19.3684C21.2266 19.4526 21.1856 19.5345 21.1423 19.6142C21.0994 19.6931 21.0539 19.7706 21.0057 19.8464C20.9581 19.9215 20.9081 19.9945 20.8558 20.0651C20.8038 20.1356 20.7493 20.2041 20.6923 20.2706C20.6356 20.3368 20.5764 20.4009 20.515 20.4628C20.4535 20.5247 20.3896 20.5844 20.3235 20.6421C20.2574 20.6997 20.1888 20.7551 20.1178 20.8085C20.0469 20.8618 19.9735 20.913 19.8976 20.9621C19.8217 21.0111 19.7434 21.0582 19.6626 21.1031C19.5818 21.148 19.4984 21.1909 19.4127 21.2317C19.3255 21.2732 19.2371 21.312 19.1475 21.3481C19.055 21.3855 18.9614 21.4202 18.8669 21.4523C18.6747 21.5178 18.4719 21.5753 18.2585 21.6249C18.0361 21.6763 17.8116 21.7183 17.5856 21.7509C17.4987 21.7636 17.299 21.7755 17.013 21.7865L15.9231 21.8168L12.833 21.857L9.59868 21.862L8.32851 21.8485L7.50375 21.8228L6.89558 21.7801C6.70674 21.7642 6.53113 21.7465 6.3666 21.7264C6.20206 21.7063 6.04883 21.684 5.90466 21.6588C5.76805 21.6351 5.63227 21.6069 5.49755 21.5742C5.37471 21.5443 5.25313 21.5095 5.13311 21.4698C5.01739 21.4313 4.90675 21.389 4.79911 21.3425C4.69147 21.296 4.5869 21.245 4.48334 21.1894C4.37977 21.1337 4.27728 21.0733 4.17364 21.0074C4.09544 20.9577 4.01986 20.9074 3.94713 20.8541C3.87439 20.8009 3.80412 20.7477 3.73646 20.6921C3.6688 20.6364 3.60383 20.579 3.54117 20.52C3.47892 20.4612 3.41881 20.4002 3.36095 20.3372C3.30328 20.2743 3.24815 20.2095 3.19525 20.1425C3.14215 20.0752 3.09155 20.0059 3.04356 19.9349C2.99485 19.8628 2.94877 19.7889 2.90539 19.7134C2.86157 19.6373 2.81989 19.5586 2.7803 19.4774C2.74004 19.3947 2.70247 19.3106 2.66766 19.2254C2.63229 19.1387 2.59877 19.0492 2.56724 18.9568C2.5042 18.7719 2.44884 18.5751 2.40071 18.3652C2.35258 18.1553 2.31152 17.9323 2.27677 17.6947C2.24201 17.4571 2.21403 17.2053 2.19173 16.9375C2.17528 16.7403 2.16221 16.4332 2.15221 16.0456L2.1313 14.6675L2.13899 11.1541L2.1995 7.79694L2.24563 6.61412L2.27177 6.22315C2.28084 6.11874 2.29022 6.04139 2.29983 5.99495C2.33151 5.84218 2.36342 5.70002 2.3964 5.56692C2.42722 5.44137 2.46149 5.31669 2.4992 5.19302C2.53503 5.07631 2.57278 4.96698 2.61315 4.86341C2.65207 4.76309 2.69545 4.66455 2.74316 4.56809C2.78975 4.47429 2.83981 4.38448 2.89417 4.29706C2.94853 4.20964 3.00719 4.12484 3.07116 4.04049C3.13513 3.95615 3.20402 3.87288 3.27898 3.78846C3.35395 3.70404 3.43491 3.61877 3.52271 3.53089C3.62505 3.42798 3.7316 3.32935 3.8421 3.23526C3.94644 3.14649 4.05525 3.06311 4.1681 2.98546C4.27905 2.90857 4.39284 2.84014 4.51132 2.77725C4.62981 2.71435 4.75298 2.65753 4.88253 2.6064C5.01209 2.55528 5.14818 2.50953 5.29234 2.46801C5.44379 2.42553 5.59692 2.38928 5.75135 2.35937C5.91374 2.32754 6.08619 2.29978 6.27034 2.27556C6.45448 2.25134 6.65039 2.23043 6.85983 2.21228C7.00591 2.19967 7.25764 2.18845 7.5891 2.17899L8.79545 2.15516L12.0045 2.13555L12.004 2.13624Z" fill="white"/>
</svg>
