<svg width="20" height="20" viewBox="0 0 20 20" fill="none" xmlns="http://www.w3.org/2000/svg">
<path d="M15 8.95817C14.6583 8.95817 14.375 8.67484 14.375 8.33317V6.6665C14.375 4.0415 13.6333 2.2915 10 2.2915C6.36667 2.2915 5.625 4.0415 5.625 6.6665V8.33317C5.625 8.67484 5.34167 8.95817 5 8.95817C4.65833 8.95817 4.375 8.67484 4.375 8.33317V6.6665C4.375 4.24984 4.95833 1.0415 10 1.0415C15.0417 1.0415 15.625 4.24984 15.625 6.6665V8.33317C15.625 8.67484 15.3417 8.95817 15 8.95817Z" fill="#E3F1EC"/>
<path d="M10.0001 16.0417C8.50841 16.0417 7.29175 14.825 7.29175 13.3333C7.29175 11.8417 8.50841 10.625 10.0001 10.625C11.4917 10.625 12.7084 11.8417 12.7084 13.3333C12.7084 14.825 11.4917 16.0417 10.0001 16.0417ZM10.0001 11.875C9.20008 11.875 8.54175 12.5333 8.54175 13.3333C8.54175 14.1333 9.20008 14.7917 10.0001 14.7917C10.8001 14.7917 11.4584 14.1333 11.4584 13.3333C11.4584 12.5333 10.8001 11.875 10.0001 11.875Z" fill="#E3F1EC"/>
<path d="M14.1667 18.9585H5.83342C2.15841 18.9585 1.04175 17.8418 1.04175 14.1668V12.5002C1.04175 8.82516 2.15841 7.7085 5.83342 7.7085H14.1667C17.8417 7.7085 18.9584 8.82516 18.9584 12.5002V14.1668C18.9584 17.8418 17.8417 18.9585 14.1667 18.9585ZM5.83342 8.9585C2.85008 8.9585 2.29175 9.52516 2.29175 12.5002V14.1668C2.29175 17.1418 2.85008 17.7085 5.83342 17.7085H14.1667C17.1501 17.7085 17.7084 17.1418 17.7084 14.1668V12.5002C17.7084 9.52516 17.1501 8.9585 14.1667 8.9585H5.83342Z" fill="#E3F1EC"/>
</svg>
