<svg width="20" height="20" viewBox="0 0 20 20" fill="none" xmlns="http://www.w3.org/2000/svg">
<path d="M7.62496 6.24121C7.15829 6.24121 6.79163 6.61621 6.79163 7.07454C6.79163 7.53288 7.16663 7.90788 7.62496 7.90788C8.08329 7.90788 8.45829 7.53288 8.45829 7.07454C8.45829 6.61621 8.08329 6.24121 7.62496 6.24121Z" fill="#F4E85B"/>
<path d="M17.8833 4.20033C17.1833 2.57533 15.6416 1.66699 13.4916 1.66699H6.50829C3.83329 1.66699 1.66663 3.83366 1.66663 6.50866V13.492C1.66663 15.642 2.57496 17.1837 4.19996 17.8837C4.35829 17.9503 4.54163 17.9087 4.65829 17.792L17.7916 4.65866C17.9166 4.53366 17.9583 4.35033 17.8833 4.20033ZM8.77496 10.2003C8.44996 10.517 8.02496 10.667 7.59996 10.667C7.17496 10.667 6.74996 10.5087 6.42496 10.2003C5.57496 9.40033 4.64163 8.12533 4.99996 6.60866C5.31663 5.23366 6.53329 4.61699 7.59996 4.61699C8.66663 4.61699 9.88329 5.23366 10.2 6.61699C10.55 8.12533 9.61663 9.40033 8.77496 10.2003Z" fill="#F4E85B"/>
<path d="M16.225 17.1079C16.4083 17.2913 16.3833 17.5913 16.1583 17.7163C15.425 18.1246 14.5333 18.3329 13.4916 18.3329H6.50829C6.26662 18.3329 6.16662 18.0496 6.33329 17.8829L11.3666 12.8496C11.5333 12.6829 11.7916 12.6829 11.9583 12.8496L16.225 17.1079Z" fill="#F4E85B"/>
<path d="M18.3333 6.50841V13.4917C18.3333 14.5334 18.125 15.4334 17.7167 16.1584C17.5917 16.3834 17.2917 16.4001 17.1083 16.2251L12.8417 11.9584C12.675 11.7917 12.675 11.5334 12.8417 11.3667L17.875 6.33341C18.05 6.16674 18.3333 6.26674 18.3333 6.50841Z" fill="#F4E85B"/>
</svg>
