<svg width="42" height="24" viewBox="0 0 42 24" fill="none" xmlns="http://www.w3.org/2000/svg">
<rect width="42" height="24" rx="6" fill="black"/>
<path d="M21.0124 17.1375C19.8195 18.143 18.2722 18.75 16.5813 18.75C12.8085 18.75 9.75 15.7279 9.75 12C9.75 8.27208 12.8085 5.25 16.5813 5.25C18.2722 5.25 19.8195 5.857 21.0124 6.86251C22.2053 5.857 23.7527 5.25 25.4436 5.25C29.2164 5.25 32.2749 8.27208 32.2749 12C32.2749 15.7279 29.2164 18.75 25.4436 18.75C23.7527 18.75 22.2053 18.143 21.0124 17.1375Z" fill="#ED0006"/>
<path d="M21.0127 17.1375C22.4815 15.8994 23.4128 14.0572 23.4128 12C23.4128 9.94284 22.4815 8.10061 21.0127 6.86254C22.2056 5.85702 23.753 5.25 25.4439 5.25C29.2167 5.25 32.2752 8.27208 32.2752 12C32.2752 15.7279 29.2167 18.75 25.4439 18.75C23.753 18.75 22.2056 18.143 21.0127 17.1375Z" fill="#F9A000"/>
<path d="M21.0125 17.1383C22.4813 15.9002 23.4126 14.0579 23.4126 12.0008C23.4126 9.94359 22.4813 8.10136 21.0125 6.86328C19.5437 8.10136 18.6123 9.94359 18.6123 12.0008C18.6123 14.0579 19.5437 15.9002 21.0125 17.1383Z" fill="#FF5E00"/>
<rect x="0.5" y="0.5" width="41" height="23" rx="5.5" stroke="black" stroke-opacity="0.14"/>
</svg>
