<svg width="20" height="20" viewBox="0 0 20 20" fill="none" xmlns="http://www.w3.org/2000/svg">
<path d="M14.9999 6.59246C14.9749 6.59246 14.9583 6.59246 14.9333 6.59246H14.8916C13.3166 6.54246 12.1416 5.32578 12.1416 3.82578C12.1416 2.29245 13.3916 1.05078 14.9166 1.05078C16.4416 1.05078 17.6916 2.30078 17.6916 3.82578C17.6833 5.33412 16.5083 6.55078 15.0083 6.60078C15.0083 6.59245 15.0083 6.59246 14.9999 6.59246ZM14.9166 2.29245C14.0749 2.29245 13.3916 2.97579 13.3916 3.81745C13.3916 4.64245 14.0333 5.30912 14.8583 5.34246C14.8666 5.33412 14.9333 5.33412 15.0083 5.34246C15.8166 5.30079 16.4416 4.63412 16.4499 3.81745C16.4499 2.97579 15.7666 2.29245 14.9166 2.29245Z" fill="white"/>
<path d="M15.0083 12.7339C14.6833 12.7339 14.3583 12.7089 14.0333 12.6505C13.6916 12.5922 13.4666 12.2672 13.5249 11.9255C13.5833 11.5839 13.9083 11.3589 14.2499 11.4172C15.2749 11.5922 16.3583 11.4005 17.0833 10.9172C17.4749 10.6589 17.6833 10.3339 17.6833 10.0089C17.6833 9.68386 17.4666 9.36719 17.0833 9.10886C16.3583 8.62553 15.2583 8.43386 14.2249 8.6172C13.8833 8.68386 13.5583 8.45053 13.4999 8.10886C13.4416 7.7672 13.6666 7.4422 14.0083 7.38387C15.3666 7.1422 16.7749 7.40053 17.7749 8.06719C18.5083 8.55886 18.9333 9.25886 18.9333 10.0089C18.9333 10.7505 18.5166 11.4589 17.7749 11.9589C17.0166 12.4589 16.0333 12.7339 15.0083 12.7339Z" fill="white"/>
<path d="M4.9749 6.59102C4.96657 6.59102 4.95824 6.59102 4.95824 6.59102C3.45824 6.54102 2.28324 5.32435 2.2749 3.82435C2.2749 2.29101 3.5249 1.04102 5.0499 1.04102C6.5749 1.04102 7.8249 2.29102 7.8249 3.81602C7.8249 5.32435 6.6499 6.54102 5.1499 6.59102L4.9749 5.96602L5.03324 6.59102C5.01657 6.59102 4.99157 6.59102 4.9749 6.59102ZM5.05824 5.34102C5.10824 5.34102 5.1499 5.34101 5.1999 5.34935C5.94157 5.31601 6.59157 4.64935 6.59157 3.82435C6.59157 2.98268 5.90824 2.29934 5.06657 2.29934C4.2249 2.29934 3.54157 2.98268 3.54157 3.82435C3.54157 4.64101 4.1749 5.29935 4.98324 5.34935C4.99157 5.34101 5.0249 5.34102 5.05824 5.34102Z" fill="white"/>
<path d="M4.9665 12.7339C3.9415 12.7339 2.95817 12.4589 2.19984 11.9589C1.4665 11.4672 1.0415 10.7589 1.0415 10.0089C1.0415 9.26719 1.4665 8.55886 2.19984 8.06719C3.19984 7.40053 4.60817 7.1422 5.9665 7.38387C6.30817 7.4422 6.53317 7.7672 6.47484 8.10886C6.4165 8.45053 6.09151 8.68386 5.74984 8.6172C4.71651 8.43386 3.62484 8.62553 2.89151 9.10886C2.49984 9.36719 2.2915 9.68386 2.2915 10.0089C2.2915 10.3339 2.50817 10.6589 2.89151 10.9172C3.61651 11.4005 4.69984 11.5922 5.72484 11.4172C6.0665 11.3589 6.39151 11.5922 6.44984 11.9255C6.50817 12.2672 6.28317 12.5922 5.9415 12.6505C5.61651 12.7089 5.2915 12.7339 4.9665 12.7339Z" fill="white"/>
<path d="M9.99994 12.8171C9.97494 12.8171 9.95827 12.8171 9.93327 12.8171H9.8916C8.3166 12.7671 7.1416 11.5504 7.1416 10.0504C7.1416 8.51706 8.3916 7.27539 9.9166 7.27539C11.4416 7.27539 12.6916 8.52539 12.6916 10.0504C12.6833 11.5587 11.5083 12.7754 10.0083 12.8254C10.0083 12.8171 10.0083 12.8171 9.99994 12.8171ZM9.9166 8.51706C9.07494 8.51706 8.3916 9.2004 8.3916 10.0421C8.3916 10.8671 9.03327 11.5337 9.85827 11.5671C9.8666 11.5587 9.93327 11.5587 10.0083 11.5671C10.8166 11.5254 11.4416 10.8587 11.4499 10.0421C11.4499 9.20873 10.7666 8.51706 9.9166 8.51706Z" fill="white"/>
<path d="M9.99974 18.9676C8.99974 18.9676 7.99974 18.7093 7.22474 18.1843C6.49141 17.6926 6.06641 16.9926 6.06641 16.2426C6.06641 15.5009 6.48307 14.7842 7.22474 14.2926C8.78307 13.2592 11.2247 13.2592 12.7747 14.2926C13.5081 14.7842 13.9331 15.4842 13.9331 16.2342C13.9331 16.9759 13.5164 17.6926 12.7747 18.1843C11.9997 18.7009 10.9997 18.9676 9.99974 18.9676ZM7.91641 15.3426C7.52474 15.6009 7.31641 15.9259 7.31641 16.2509C7.31641 16.5759 7.53307 16.8926 7.91641 17.1509C9.04141 17.9093 10.9497 17.9093 12.0747 17.1509C12.4664 16.8926 12.6747 16.5676 12.6747 16.2426C12.6747 15.9176 12.4581 15.6009 12.0747 15.3426C10.9581 14.5843 9.04974 14.5926 7.91641 15.3426Z" fill="white"/>
</svg>
