<svg width="32" height="32" viewBox="0 0 32 32" fill="none" xmlns="http://www.w3.org/2000/svg">
  <path
    d="M15.8934 30.3337C8.00006 30.3337 1.56006 23.907 1.56006 16.0003C1.56006 8.09366 8.00006 1.66699 15.8934 1.66699C23.7867 1.66699 30.2267 8.09366 30.2267 16.0003C30.2267 23.907 23.8001 30.3337 15.8934 30.3337ZM15.8934 3.66699C9.09339 3.66699 3.56006 9.20033 3.56006 16.0003C3.56006 22.8003 9.09339 28.3337 15.8934 28.3337C22.6934 28.3337 28.2267 22.8003 28.2267 16.0003C28.2267 9.20033 22.6934 3.66699 15.8934 3.66699Z"
    fill="white" />
  <path
    d="M21.2267 17H10.5601C10.0134 17 9.56006 16.5467 9.56006 16C9.56006 15.4533 10.0134 15 10.5601 15H21.2267C21.7734 15 22.2267 15.4533 22.2267 16C22.2267 16.5467 21.7867 17 21.2267 17Z"
    fill="white" />
</svg>