<svg width="128" height="158" viewBox="0 0 128 158" fill="none" xmlns="http://www.w3.org/2000/svg">
<path d="M63.5141 108.857C91.1026 108.857 113.582 86.4705 113.582 58.975C113.489 31.3866 91.1026 9 63.5141 9C35.8328 9 13.4463 31.3866 13.4463 58.8821C13.4463 86.4705 35.8328 108.857 63.5141 108.857Z" fill="#DBDBDB"/>
<path d="M114.79 41.5115C116.893 41.5115 118.598 39.8064 118.598 37.703C118.598 35.5997 116.893 33.8945 114.79 33.8945C112.687 33.8945 110.981 35.5997 110.981 37.703C110.981 39.8064 112.687 41.5115 114.79 41.5115Z" fill="#DBDBDB"/>
<path d="M120.364 26.6491C121.8 26.6491 122.965 25.4846 122.965 24.0482C122.965 22.6117 121.8 21.4473 120.364 21.4473C118.927 21.4473 117.763 22.6117 117.763 24.0482C117.763 25.4846 118.927 26.6491 120.364 26.6491Z" fill="#DBDBDB"/>
<path d="M9.17404 92.4155C11.8417 92.4155 14.0043 90.2529 14.0043 87.5852C14.0043 84.9175 11.8417 82.7549 9.17404 82.7549C6.50635 82.7549 4.34375 84.9175 4.34375 87.5852C4.34375 90.2529 6.50635 92.4155 9.17404 92.4155Z" fill="#DBDBDB"/>
<g filter="url(#filter0_d_12_2331)">
<path d="M98.6394 37.9536V98.4541C98.6394 102.862 95.1432 106.359 90.7348 106.359H36.3147C31.9064 106.359 28.4102 102.862 28.4102 98.4541V19.2562C28.4102 14.8478 31.9064 11.3516 36.3147 11.3516H72.1894C74.1656 11.3516 75.9897 12.1116 77.3578 13.4797L96.5113 32.6332C97.8794 34.1533 98.6394 35.9774 98.6394 37.9536Z" fill="white"/>
</g>
<g filter="url(#filter1_d_12_2331)">
<path d="M75.7939 12.2891V28.9534C75.7939 32.1775 78.5241 34.7567 81.6265 34.7567H97.9288C97.5772 34.0005 97.1004 33.2887 96.5106 32.6334L77.3572 13.4799C76.886 13.0088 76.3608 12.6098 75.7939 12.2891Z" fill="#E1E1E1"/>
</g>
<path d="M51.8929 89.8836H39.2166C38.7436 89.8836 38.3652 89.3808 38.3652 88.7775C38.3652 88.1742 38.7436 87.6714 39.2166 87.6714H51.8929C52.3659 87.6714 52.7443 88.1742 52.7443 88.7775C52.7443 89.4813 52.3659 89.8836 51.8929 89.8836Z" fill="#E1E1E1"/>
<path d="M68.1043 27.9426H39.5965C38.9335 27.9426 38.3652 27.4321 38.3652 26.8366C38.3652 26.241 38.9335 25.7305 39.5965 25.7305H68.1043C68.7673 25.7305 69.3356 26.241 69.3356 26.8366C69.3356 27.4321 68.7673 27.9426 68.1043 27.9426Z" fill="#E1E1E1"/>
<path d="M50.5086 34.5794H39.589C38.93 34.5794 38.3652 34.0689 38.3652 33.4733C38.3652 32.8777 38.93 32.3672 39.589 32.3672H50.4145C51.0734 32.3672 51.6382 32.8777 51.6382 33.4733C51.6382 34.0689 51.0734 34.5794 50.5086 34.5794Z" fill="#E1E1E1"/>
<path d="M88.3508 73.292H55.1088H51.445H40.3643C39.9175 73.292 39.4707 73.7529 39.4707 74.3981C39.4707 74.9511 39.8281 75.5042 40.3643 75.5042H51.445H55.1088H88.3508C88.7976 75.5042 89.2445 75.0433 89.2445 74.3981C89.1551 73.7529 88.7976 73.292 88.3508 73.292Z" fill="#E1E1E1"/>
<path d="M88.3492 65.5493H75.9953H71.7878H40.3659C39.9183 65.5493 39.4707 66.0102 39.4707 66.6554C39.4707 67.2084 39.8288 67.7615 40.3659 67.7615H71.7878H75.9953H88.3492C88.7968 67.7615 89.2445 67.3006 89.2445 66.6554C89.1549 66.0102 88.7968 65.5493 88.3492 65.5493Z" fill="#E1E1E1"/>
<path d="M88.4304 57.8071H85.2199H82.0094H40.3625C39.9166 57.8071 39.4707 58.268 39.4707 58.9132C39.4707 59.4663 39.8274 60.0193 40.3625 60.0193H82.0094H85.5766H88.3412C88.7871 60.0193 89.233 59.5584 89.233 58.9132C89.3222 58.3602 88.8763 57.8071 88.4304 57.8071Z" fill="#E1E1E1"/>
<path d="M88.3604 50.0645H78.0166H75.4528H40.3548C39.9127 50.0645 39.4707 50.5253 39.4707 51.1705C39.4707 51.7236 39.8243 52.2766 40.3548 52.2766H75.4528H78.0166H88.272C88.8908 52.2766 89.2445 51.8158 89.2445 51.1705C89.2445 50.6175 88.8908 50.0645 88.3604 50.0645Z" fill="#E1E1E1"/>
<path d="M99.1351 106.619C109.932 106.619 118.684 97.8668 118.684 87.0701C118.684 76.2734 109.932 67.521 99.1351 67.521C88.3384 67.521 79.5859 76.2734 79.5859 87.0701C79.5859 97.8668 88.3384 106.619 99.1351 106.619Z" fill="url(#paint0_linear_12_2331)"/>
<path d="M101.184 75.7498V82.1925C101.184 82.622 101.184 83.0516 101.12 83.5424L100.414 88.1444C100.349 88.5125 100.028 88.8193 99.5789 88.8193H98.1665C97.7813 88.8193 97.3961 88.5125 97.3319 88.1444L96.6257 83.5424C96.5615 83.1129 96.5615 82.6834 96.5615 82.1925V75.7498C96.5615 75.3203 96.9467 74.9521 97.3961 74.9521H100.414C100.799 75.0135 101.184 75.3203 101.184 75.7498Z" fill="white"/>
<path d="M100.414 98.5137H97.2687C96.7551 98.5137 96.3057 98.0643 96.3057 97.5507V94.4049C96.3057 93.8913 96.7551 93.4419 97.2687 93.4419H100.414C100.928 93.4419 101.377 93.8913 101.377 94.4049V97.5507C101.377 98.0643 100.928 98.5137 100.414 98.5137Z" fill="white"/>
<path opacity="0.8" d="M7.40831 151.424H7.60031V140.8H8.94431V152H6.25631L3.02431 141.376H2.83231V152H1.48831V140.8H4.17631L7.40831 151.424ZM18.9972 148.128C18.9972 148.789 18.8852 149.376 18.6612 149.888C18.4479 150.389 18.1599 150.816 17.7972 151.168C17.4345 151.509 17.0079 151.771 16.5172 151.952C16.0372 152.133 15.5359 152.224 15.0132 152.224C14.4799 152.224 13.9732 152.133 13.4932 151.952C13.0132 151.771 12.5919 151.509 12.2292 151.168C11.8665 150.816 11.5732 150.389 11.3492 149.888C11.1359 149.376 11.0292 148.789 11.0292 148.128V147.936C11.0292 147.285 11.1359 146.709 11.3492 146.208C11.5732 145.696 11.8665 145.264 12.2292 144.912C12.6025 144.56 13.0292 144.293 13.5092 144.112C13.9892 143.931 14.4905 143.84 15.0132 143.84C15.5359 143.84 16.0372 143.931 16.5172 144.112C16.9972 144.293 17.4185 144.56 17.7812 144.912C18.1545 145.264 18.4479 145.696 18.6612 146.208C18.8852 146.709 18.9972 147.285 18.9972 147.936V148.128ZM15.0132 151.04C15.3972 151.04 15.7492 150.976 16.0692 150.848C16.3999 150.709 16.6879 150.512 16.9332 150.256C17.1785 150 17.3705 149.696 17.5092 149.344C17.6479 148.981 17.7172 148.576 17.7172 148.128V147.936C17.7172 147.509 17.6479 147.12 17.5092 146.768C17.3705 146.405 17.1785 146.096 16.9332 145.84C16.6879 145.584 16.3999 145.387 16.0692 145.248C15.7385 145.099 15.3865 145.024 15.0132 145.024C14.6399 145.024 14.2879 145.099 13.9572 145.248C13.6265 145.387 13.3385 145.584 13.0932 145.84C12.8479 146.096 12.6559 146.405 12.5172 146.768C12.3785 147.12 12.3092 147.509 12.3092 147.936V148.128C12.3092 148.576 12.3785 148.981 12.5172 149.344C12.6559 149.696 12.8479 150 13.0932 150.256C13.3385 150.512 13.6212 150.709 13.9412 150.848C14.2719 150.976 14.6292 151.04 15.0132 151.04ZM37.2469 150.784H37.0549C36.9269 151.029 36.7616 151.243 36.5589 151.424C36.3669 151.605 36.1536 151.755 35.9189 151.872C35.6949 151.989 35.4549 152.075 35.1989 152.128C34.9429 152.192 34.6976 152.224 34.4629 152.224C33.9296 152.224 33.4336 152.133 32.9749 151.952C32.5163 151.771 32.1109 151.509 31.7589 151.168C31.4176 150.827 31.1456 150.405 30.9429 149.904C30.7509 149.392 30.6549 148.811 30.6549 148.16V147.904C30.6549 147.264 30.7563 146.693 30.9589 146.192C31.1616 145.68 31.4336 145.253 31.7749 144.912C32.1163 144.56 32.5163 144.293 32.9749 144.112C33.4336 143.931 33.9189 143.84 34.4309 143.84C34.9749 143.84 35.4816 143.963 35.9509 144.208C36.4309 144.443 36.7989 144.811 37.0549 145.312H37.2469V140.8H38.4949V152H37.2469V150.784ZM34.5909 151.04C34.9643 151.04 35.3109 150.971 35.6309 150.832C35.9509 150.693 36.2283 150.496 36.4629 150.24C36.7083 149.984 36.9003 149.68 37.0389 149.328C37.1776 148.965 37.2469 148.565 37.2469 148.128V147.936C37.2469 147.509 37.1776 147.12 37.0389 146.768C36.9003 146.405 36.7083 146.096 36.4629 145.84C36.2283 145.584 35.9456 145.387 35.6149 145.248C35.2949 145.099 34.9536 145.024 34.5909 145.024C34.2176 145.024 33.8656 145.093 33.5349 145.232C33.2149 145.371 32.9323 145.568 32.6869 145.824C32.4523 146.08 32.2656 146.384 32.1269 146.736C31.9989 147.088 31.9349 147.477 31.9349 147.904V148.16C31.9349 148.608 31.9989 149.008 32.1269 149.36C32.2656 149.712 32.4523 150.016 32.6869 150.272C32.9323 150.517 33.2149 150.709 33.5349 150.848C33.8549 150.976 34.2069 151.04 34.5909 151.04ZM46.6598 150.656H46.4678C46.2118 151.189 45.8545 151.584 45.3958 151.84C44.9478 152.096 44.4731 152.224 43.9718 152.224C43.4491 152.224 42.9638 152.139 42.5158 151.968C42.0678 151.787 41.6731 151.525 41.3318 151.184C41.0011 150.832 40.7398 150.405 40.5478 149.904C40.3558 149.403 40.2598 148.821 40.2598 148.16V147.904C40.2598 147.253 40.3558 146.677 40.5478 146.176C40.7398 145.675 41.0011 145.253 41.3318 144.912C41.6731 144.56 42.0678 144.293 42.5158 144.112C42.9638 143.931 43.4385 143.84 43.9398 143.84C44.4838 143.84 44.9745 143.963 45.4118 144.208C45.8598 144.443 46.2118 144.811 46.4678 145.312H46.6598V144.064H47.9078V150.368C47.9078 150.688 48.0518 150.848 48.3398 150.848H48.7398V152H47.8918C47.5291 152 47.2305 151.883 46.9958 151.648C46.7718 151.413 46.6598 151.115 46.6598 150.752V150.656ZM44.0998 151.04C44.4731 151.04 44.8145 150.971 45.1238 150.832C45.4438 150.693 45.7158 150.496 45.9398 150.24C46.1638 149.984 46.3398 149.68 46.4678 149.328C46.5958 148.965 46.6598 148.565 46.6598 148.128V147.936C46.6598 147.509 46.5958 147.12 46.4678 146.768C46.3398 146.405 46.1585 146.096 45.9238 145.84C45.6998 145.584 45.4278 145.387 45.1078 145.248C44.7985 145.099 44.4625 145.024 44.0998 145.024C43.7265 145.024 43.3851 145.093 43.0758 145.232C42.7665 145.371 42.4945 145.568 42.2598 145.824C42.0358 146.069 41.8598 146.373 41.7318 146.736C41.6038 147.088 41.5398 147.477 41.5398 147.904V148.16C41.5398 149.067 41.7745 149.776 42.2438 150.288C42.7238 150.789 43.3425 151.04 44.0998 151.04ZM50.4247 144.064H52.9207V140.8H54.1687V144.064H57.2407V145.216H54.1687V150.368C54.1687 150.688 54.3127 150.848 54.6007 150.848H56.8567V152H54.1527C53.79 152 53.4914 151.883 53.2567 151.648C53.0327 151.413 52.9207 151.115 52.9207 150.752V145.216H50.4247V144.064ZM66.2536 150.656H66.0616C65.8056 151.189 65.4482 151.584 64.9896 151.84C64.5416 152.096 64.0669 152.224 63.5656 152.224C63.0429 152.224 62.5576 152.139 62.1096 151.968C61.6616 151.787 61.2669 151.525 60.9256 151.184C60.5949 150.832 60.3336 150.405 60.1416 149.904C59.9496 149.403 59.8536 148.821 59.8536 148.16V147.904C59.8536 147.253 59.9496 146.677 60.1416 146.176C60.3336 145.675 60.5949 145.253 60.9256 144.912C61.2669 144.56 61.6616 144.293 62.1096 144.112C62.5576 143.931 63.0322 143.84 63.5336 143.84C64.0776 143.84 64.5682 143.963 65.0056 144.208C65.4536 144.443 65.8056 144.811 66.0616 145.312H66.2536V144.064H67.5016V150.368C67.5016 150.688 67.6456 150.848 67.9336 150.848H68.3336V152H67.4856C67.1229 152 66.8242 151.883 66.5896 151.648C66.3656 151.413 66.2536 151.115 66.2536 150.752V150.656ZM63.6936 151.04C64.0669 151.04 64.4082 150.971 64.7176 150.832C65.0376 150.693 65.3096 150.496 65.5336 150.24C65.7576 149.984 65.9336 149.68 66.0616 149.328C66.1896 148.965 66.2536 148.565 66.2536 148.128V147.936C66.2536 147.509 66.1896 147.12 66.0616 146.768C65.9336 146.405 65.7522 146.096 65.5176 145.84C65.2936 145.584 65.0216 145.387 64.7016 145.248C64.3922 145.099 64.0562 145.024 63.6936 145.024C63.3202 145.024 62.9789 145.093 62.6696 145.232C62.3602 145.371 62.0882 145.568 61.8536 145.824C61.6296 146.069 61.4536 146.373 61.3256 146.736C61.1976 147.088 61.1336 147.477 61.1336 147.904V148.16C61.1336 149.067 61.3682 149.776 61.8376 150.288C62.3176 150.789 62.9362 151.04 63.6936 151.04ZM80.0073 144.064H82.4553V142.048C82.4553 141.685 82.5673 141.387 82.7913 141.152C83.026 140.917 83.3246 140.8 83.6873 140.8H86.8233V141.952H84.1353C83.8473 141.952 83.7033 142.112 83.7033 142.432V144.064H87.0153V145.216H83.7033V152H82.4553V145.216H80.0073V144.064ZM97.3722 148.128C97.3722 148.789 97.2602 149.376 97.0362 149.888C96.8229 150.389 96.5349 150.816 96.1722 151.168C95.8095 151.509 95.3829 151.771 94.8922 151.952C94.4122 152.133 93.9109 152.224 93.3882 152.224C92.8549 152.224 92.3482 152.133 91.8682 151.952C91.3882 151.771 90.9669 151.509 90.6042 151.168C90.2415 150.816 89.9482 150.389 89.7242 149.888C89.5109 149.376 89.4042 148.789 89.4042 148.128V147.936C89.4042 147.285 89.5109 146.709 89.7242 146.208C89.9482 145.696 90.2415 145.264 90.6042 144.912C90.9775 144.56 91.4042 144.293 91.8842 144.112C92.3642 143.931 92.8655 143.84 93.3882 143.84C93.9109 143.84 94.4122 143.931 94.8922 144.112C95.3722 144.293 95.7935 144.56 96.1562 144.912C96.5295 145.264 96.8229 145.696 97.0362 146.208C97.2602 146.709 97.3722 147.285 97.3722 147.936V148.128ZM93.3882 151.04C93.7722 151.04 94.1242 150.976 94.4442 150.848C94.7749 150.709 95.0629 150.512 95.3082 150.256C95.5535 150 95.7455 149.696 95.8842 149.344C96.0229 148.981 96.0922 148.576 96.0922 148.128V147.936C96.0922 147.509 96.0229 147.12 95.8842 146.768C95.7455 146.405 95.5535 146.096 95.3082 145.84C95.0629 145.584 94.7749 145.387 94.4442 145.248C94.1135 145.099 93.7615 145.024 93.3882 145.024C93.0149 145.024 92.6629 145.099 92.3322 145.248C92.0015 145.387 91.7135 145.584 91.4682 145.84C91.2229 146.096 91.0309 146.405 90.8922 146.768C90.7535 147.12 90.6842 147.509 90.6842 147.936V148.128C90.6842 148.576 90.7535 148.981 90.8922 149.344C91.0309 149.696 91.2229 150 91.4682 150.256C91.7135 150.512 91.9962 150.709 92.3162 150.848C92.6469 150.976 93.0042 151.04 93.3882 151.04ZM105.345 144.064H106.593V152H105.345V150.56H105.153C104.897 151.072 104.561 151.477 104.145 151.776C103.729 152.075 103.201 152.224 102.561 152.224C102.124 152.224 101.718 152.149 101.345 152C100.982 151.861 100.668 151.648 100.401 151.36C100.145 151.072 99.9424 150.715 99.7931 150.288C99.6544 149.861 99.5851 149.365 99.5851 148.8V144.064H100.833V148.64C100.833 149.472 101.004 150.08 101.345 150.464C101.686 150.848 102.209 151.04 102.913 151.04C103.67 151.04 104.262 150.784 104.689 150.272C105.126 149.749 105.345 149.056 105.345 148.192V144.064ZM110.726 152H109.478V144.064H110.726V145.408H110.918C111.409 144.363 112.262 143.84 113.478 143.84C114.395 143.84 115.126 144.128 115.67 144.704C116.214 145.269 116.486 146.123 116.486 147.264V152H115.238V147.52C115.238 146.688 115.051 146.064 114.678 145.648C114.305 145.232 113.798 145.024 113.158 145.024C112.401 145.024 111.803 145.285 111.366 145.808C110.939 146.32 110.726 147.008 110.726 147.872V152ZM125.419 150.784H125.227C125.099 151.029 124.933 151.243 124.731 151.424C124.539 151.605 124.325 151.755 124.091 151.872C123.867 151.989 123.627 152.075 123.371 152.128C123.115 152.192 122.869 152.224 122.635 152.224C122.101 152.224 121.605 152.133 121.147 151.952C120.688 151.771 120.283 151.509 119.931 151.168C119.589 150.827 119.317 150.405 119.115 149.904C118.923 149.392 118.827 148.811 118.827 148.16V147.904C118.827 147.264 118.928 146.693 119.131 146.192C119.333 145.68 119.605 145.253 119.947 144.912C120.288 144.56 120.688 144.293 121.147 144.112C121.605 143.931 122.091 143.84 122.603 143.84C123.147 143.84 123.653 143.963 124.123 144.208C124.603 144.443 124.971 144.811 125.227 145.312H125.419V140.8H126.667V152H125.419V150.784ZM122.763 151.04C123.136 151.04 123.483 150.971 123.803 150.832C124.123 150.693 124.4 150.496 124.635 150.24C124.88 149.984 125.072 149.68 125.211 149.328C125.349 148.965 125.419 148.565 125.419 148.128V147.936C125.419 147.509 125.349 147.12 125.211 146.768C125.072 146.405 124.88 146.096 124.635 145.84C124.4 145.584 124.117 145.387 123.787 145.248C123.467 145.099 123.125 145.024 122.763 145.024C122.389 145.024 122.037 145.093 121.707 145.232C121.387 145.371 121.104 145.568 120.859 145.824C120.624 146.08 120.437 146.384 120.299 146.736C120.171 147.088 120.107 147.477 120.107 147.904V148.16C120.107 148.608 120.171 149.008 120.299 149.36C120.437 149.712 120.624 150.016 120.859 150.272C121.104 150.517 121.387 150.709 121.707 150.848C122.027 150.976 122.379 151.04 122.763 151.04Z" fill="#333"/>
<defs>
<filter id="filter0_d_12_2331" x="6.41016" y="0.351562" width="114.229" height="139.007" filterUnits="userSpaceOnUse" color-interpolation-filters="sRGB">
<feFlood flood-opacity="0" result="BackgroundImageFix"/>
<feColorMatrix in="SourceAlpha" type="matrix" values="0 0 0 0 0 0 0 0 0 0 0 0 0 0 0 0 0 0 127 0" result="hardAlpha"/>
<feOffset dy="11"/>
<feGaussianBlur stdDeviation="11"/>
<feColorMatrix type="matrix" values="0 0 0 0 0.397708 0 0 0 0 0.47749 0 0 0 0 0.575 0 0 0 0.27 0"/>
<feBlend mode="normal" in2="BackgroundImageFix" result="effect1_dropShadow_12_2331"/>
<feBlend mode="normal" in="SourceGraphic" in2="effect1_dropShadow_12_2331" result="shape"/>
</filter>
<filter id="filter1_d_12_2331" x="53.7939" y="1.28906" width="66.1348" height="66.4678" filterUnits="userSpaceOnUse" color-interpolation-filters="sRGB">
<feFlood flood-opacity="0" result="BackgroundImageFix"/>
<feColorMatrix in="SourceAlpha" type="matrix" values="0 0 0 0 0 0 0 0 0 0 0 0 0 0 0 0 0 0 127 0" result="hardAlpha"/>
<feOffset dy="11"/>
<feGaussianBlur stdDeviation="11"/>
<feColorMatrix type="matrix" values="0 0 0 0 0.504167 0 0 0 0 0.504167 0 0 0 0 0.504167 0 0 0 0.27 0"/>
<feBlend mode="normal" in2="BackgroundImageFix" result="effect1_dropShadow_12_2331"/>
<feBlend mode="normal" in="SourceGraphic" in2="effect1_dropShadow_12_2331" result="shape"/>
</filter>
<linearGradient id="paint0_linear_12_2331" x1="76.069" y1="78.6553" x2="115.724" y2="93.8277" gradientUnits="userSpaceOnUse">
<stop stop-color="#DD4343"/>
<stop offset="1" stop-color="#FF7474"/>
</linearGradient>
</defs>
</svg>
