<svg width="20" height="20" viewBox="0 0 20 20" fill="none" xmlns="http://www.w3.org/2000/svg">
<path d="M15 8.95829C14.6583 8.95829 14.375 8.67496 14.375 8.33329V6.66663C14.375 4.04163 13.6333 2.29163 10 2.29163C6.36667 2.29163 5.625 4.04163 5.625 6.66663V8.33329C5.625 8.67496 5.34167 8.95829 5 8.95829C4.65833 8.95829 4.375 8.67496 4.375 8.33329V6.66663C4.375 4.24996 4.95833 1.04163 10 1.04163C15.0417 1.04163 15.625 4.24996 15.625 6.66663V8.33329C15.625 8.67496 15.3417 8.95829 15 8.95829Z" fill="#E3F1EC"/>
<path d="M9.99984 16.0417C8.50817 16.0417 7.2915 14.825 7.2915 13.3333C7.2915 11.8417 8.50817 10.625 9.99984 10.625C11.4915 10.625 12.7082 11.8417 12.7082 13.3333C12.7082 14.825 11.4915 16.0417 9.99984 16.0417ZM9.99984 11.875C9.19984 11.875 8.5415 12.5333 8.5415 13.3333C8.5415 14.1333 9.19984 14.7917 9.99984 14.7917C10.7998 14.7917 11.4582 14.1333 11.4582 13.3333C11.4582 12.5333 10.7998 11.875 9.99984 11.875Z" fill="#E3F1EC"/>
<path d="M14.1665 18.9584H5.83317C2.15817 18.9584 1.0415 17.8417 1.0415 14.1667V12.5C1.0415 8.82504 2.15817 7.70837 5.83317 7.70837H14.1665C17.8415 7.70837 18.9582 8.82504 18.9582 12.5V14.1667C18.9582 17.8417 17.8415 18.9584 14.1665 18.9584ZM5.83317 8.95837C2.84984 8.95837 2.2915 9.52504 2.2915 12.5V14.1667C2.2915 17.1417 2.84984 17.7084 5.83317 17.7084H14.1665C17.1498 17.7084 17.7082 17.1417 17.7082 14.1667V12.5C17.7082 9.52504 17.1498 8.95837 14.1665 8.95837H5.83317Z" fill="#E3F1EC"/>
</svg>
