<svg width="32" height="32" viewBox="0 0 32 32" fill="none" xmlns="http://www.w3.org/2000/svg">
<path d="M15.9998 30.3337C8.09317 30.3337 1.6665 23.907 1.6665 16.0003C1.6665 8.09366 8.09317 1.66699 15.9998 1.66699C23.9065 1.66699 30.3332 8.09366 30.3332 16.0003C30.3332 23.907 23.9065 30.3337 15.9998 30.3337ZM15.9998 3.66699C9.19984 3.66699 3.6665 9.20033 3.6665 16.0003C3.6665 22.8003 9.19984 28.3337 15.9998 28.3337C22.7998 28.3337 28.3332 22.8003 28.3332 16.0003C28.3332 9.20033 22.7998 3.66699 15.9998 3.66699Z" fill="white"/>
<path d="M21.3332 17H10.6665C10.1198 17 9.6665 16.5467 9.6665 16C9.6665 15.4533 10.1198 15 10.6665 15H21.3332C21.8798 15 22.3332 15.4533 22.3332 16C22.3332 16.5467 21.8798 17 21.3332 17Z" fill="white"/>
<path d="M16 22.3337C15.4533 22.3337 15 21.8803 15 21.3337V10.667C15 10.1203 15.4533 9.66699 16 9.66699C16.5467 9.66699 17 10.1203 17 10.667V21.3337C17 21.8803 16.5467 22.3337 16 22.3337Z" fill="white"/>
</svg>
