<svg width="20" height="20" viewBox="0 0 20 20" fill="none" xmlns="http://www.w3.org/2000/svg">
<path fill-rule="evenodd" clip-rule="evenodd" d="M0 9.99902C0 4.47618 4.47715 -0.000976562 10 -0.000976562C15.5228 -0.000976562 20 4.47618 20 9.99902C20 15.5219 15.5228 19.999 10 19.999C4.47715 19.999 0 15.5219 0 9.99902ZM10 6C10.5523 6 11 6.44772 11 7V9H13C13.5523 9 14 9.44772 14 10C14 10.5523 13.5523 11 13 11H11V13C11 13.5523 10.5523 14 10 14C9.44772 14 9 13.5523 9 13V11H7C6.44772 11 6 10.5523 6 10C6 9.44772 6.44772 9 7 9H9V7C9 6.44772 9.44772 6 10 6Z" fill="white"/>
</svg>
