<svg width="24" height="24" viewBox="0 0 24 24" fill="none" xmlns="http://www.w3.org/2000/svg">
<path d="M4.99994 18.2504C4.80994 18.2504 4.61994 18.1804 4.46994 18.0304C4.17994 17.7404 4.17994 17.2604 4.46994 16.9704L18.4699 2.97043C18.7599 2.68043 19.2399 2.68043 19.5299 2.97043C19.8199 3.26043 19.8199 3.74043 19.5299 4.03043L5.52994 18.0304C5.37994 18.1804 5.18994 18.2504 4.99994 18.2504Z" fill="#12B76A"/>
<path d="M15.27 18.2505H5C4.59 18.2505 4.25 17.9105 4.25 17.5005V7.23047C4.25 6.82047 4.59 6.48047 5 6.48047C5.41 6.48047 5.75 6.82047 5.75 7.23047V16.7505H15.27C15.68 16.7505 16.02 17.0905 16.02 17.5005C16.02 17.9105 15.68 18.2505 15.27 18.2505Z" fill="#12B76A"/>
<path d="M20.5 22.75H3.5C3.09 22.75 2.75 22.41 2.75 22C2.75 21.59 3.09 21.25 3.5 21.25H20.5C20.91 21.25 21.25 21.59 21.25 22C21.25 22.41 20.91 22.75 20.5 22.75Z" fill="#12B76A"/>
</svg>
