<svg width="18" height="18" viewBox="0 0 18 18" fill="none" xmlns="http://www.w3.org/2000/svg">
<path d="M15.3156 9.16574C15.0081 9.16574 14.7531 8.91074 14.7531 8.60324V6.11328C14.7531 5.18328 13.9956 4.42578 13.0656 4.42578H2.68555C2.37805 4.42578 2.12305 4.17078 2.12305 3.86328C2.12305 3.55578 2.37805 3.30078 2.68555 3.30078H13.0656C14.6181 3.30078 15.8781 4.56078 15.8781 6.11328V8.60324C15.8781 8.91824 15.6231 9.16574 15.3156 9.16574Z" fill="url(#paint0_linear_2497_5740)"/>
<path d="M5.05555 6.80261C4.91305 6.80261 4.77055 6.75008 4.65805 6.63758L2.28805 4.2676C2.18305 4.1626 2.12305 4.02008 2.12305 3.87008C2.12305 3.72008 2.18305 3.5776 2.28805 3.4726L4.65805 1.10258C4.87555 0.885078 5.23555 0.885078 5.45305 1.10258C5.67055 1.32008 5.67055 1.68012 5.45305 1.89762L3.48057 3.87008L5.45305 5.84258C5.67055 6.06008 5.67055 6.42008 5.45305 6.63758C5.34055 6.74258 5.19805 6.80261 5.05555 6.80261Z" fill="url(#paint1_linear_2497_5740)"/>
<path d="M15.3156 14.6931H4.93555C3.38305 14.6931 2.12305 13.4331 2.12305 11.8806V9.39062C2.12305 9.08312 2.37805 8.82812 2.68555 8.82812C2.99305 8.82812 3.24805 9.08312 3.24805 9.39062V11.8806C3.24805 12.8106 4.00555 13.5681 4.93555 13.5681H15.3156C15.6231 13.5681 15.8781 13.8231 15.8781 14.1306C15.8781 14.4381 15.6231 14.6931 15.3156 14.6931Z" fill="url(#paint2_linear_2497_5740)"/>
<path d="M12.9454 17.0623C12.8029 17.0623 12.6604 17.0098 12.5479 16.8973C12.3304 16.6798 12.3304 16.3198 12.5479 16.1023L14.5204 14.1298L12.5479 12.1573C12.3304 11.9398 12.3304 11.5798 12.5479 11.3623C12.7654 11.1448 13.1254 11.1448 13.3429 11.3623L15.7129 13.7323C15.8179 13.8373 15.8779 13.9798 15.8779 14.1298C15.8779 14.2798 15.8179 14.4223 15.7129 14.5273L13.3429 16.8973C13.2379 17.0098 13.0954 17.0623 12.9454 17.0623Z" fill="url(#paint3_linear_2497_5740)"/>
<defs>
<linearGradient id="paint0_linear_2497_5740" x1="2.12305" y1="3.30078" x2="16.4635" y2="5.78183" gradientUnits="userSpaceOnUse">
<stop stop-color="#FDCD9D"/>
<stop offset="1" stop-color="#F7EF82"/>
</linearGradient>
<linearGradient id="paint1_linear_2497_5740" x1="2.12305" y1="0.939453" x2="5.86663" y2="1.10398" gradientUnits="userSpaceOnUse">
<stop stop-color="#FDCD9D"/>
<stop offset="1" stop-color="#F7EF82"/>
</linearGradient>
<linearGradient id="paint2_linear_2497_5740" x1="2.12305" y1="8.82813" x2="16.4635" y2="11.3092" gradientUnits="userSpaceOnUse">
<stop stop-color="#FDCD9D"/>
<stop offset="1" stop-color="#F7EF82"/>
</linearGradient>
<linearGradient id="paint3_linear_2497_5740" x1="12.3848" y1="11.1992" x2="16.1283" y2="11.3638" gradientUnits="userSpaceOnUse">
<stop stop-color="#FDCD9D"/>
<stop offset="1" stop-color="#F7EF82"/>
</linearGradient>
</defs>
</svg>
