<svg width="24" height="24" viewBox="0 0 24 24" fill="none" xmlns="http://www.w3.org/2000/svg">
<path d="M20.5 22.75H3.5C3.09 22.75 2.75 22.41 2.75 22C2.75 21.59 3.09 21.25 3.5 21.25H20.5C20.91 21.25 21.25 21.59 21.25 22C21.25 22.41 20.91 22.75 20.5 22.75Z" fill="#F25A5A"/>
<path d="M18.9999 18.2495C18.8099 18.2495 18.6199 18.1795 18.4699 18.0295L4.46994 4.02945C4.17994 3.73945 4.17994 3.25945 4.46994 2.96945C4.75994 2.67945 5.23994 2.67945 5.52994 2.96945L19.5299 16.9695C19.8199 17.2595 19.8199 17.7395 19.5299 18.0295C19.3799 18.1795 19.1899 18.2495 18.9999 18.2495Z" fill="#F25A5A"/>
<path d="M5 14.52C4.59 14.52 4.25 14.18 4.25 13.77V3.5C4.25 3.09 4.59 2.75 5 2.75H15.27C15.68 2.75 16.02 3.09 16.02 3.5C16.02 3.91 15.68 4.25 15.27 4.25H5.75V13.77C5.75 14.18 5.41 14.52 5 14.52Z" fill="#F25A5A"/>
</svg>
