<svg width="20" height="20" viewBox="0 0 20 20" fill="none" xmlns="http://www.w3.org/2000/svg">
<path d="M12.2505 18.9579H7.75046C3.63379 18.9579 1.88379 17.1996 1.88379 13.0913V9.34961C1.88379 9.00794 2.16712 8.72461 2.50879 8.72461C2.85046 8.72461 3.13379 9.00794 3.13379 9.34961V13.0913C3.13379 16.4996 4.34212 17.7079 7.75046 17.7079H12.2421C15.6505 17.7079 16.8588 16.4996 16.8588 13.0913V9.34961C16.8588 9.00794 17.1421 8.72461 17.4838 8.72461C17.8255 8.72461 18.1088 9.00794 18.1088 9.34961V13.0913C18.1171 17.1996 16.3588 18.9579 12.2505 18.9579Z" fill="white"/>
<path d="M10.0002 10.6253C9.0835 10.6253 8.25016 10.267 7.6585 9.60866C7.06683 8.95033 6.79183 8.09199 6.8835 7.17532L7.44183 1.60866C7.47516 1.29199 7.74183 1.04199 8.06683 1.04199H11.9585C12.2835 1.04199 12.5502 1.28366 12.5835 1.60866L13.1418 7.17532C13.2335 8.09199 12.9585 8.95033 12.3668 9.60866C11.7502 10.267 10.9168 10.6253 10.0002 10.6253ZM8.62516 2.29199L8.12516 7.30033C8.06683 7.85866 8.2335 8.38366 8.5835 8.76699C9.29183 9.55033 10.7085 9.55033 11.4168 8.76699C11.7668 8.37533 11.9335 7.85033 11.8752 7.30033L11.3752 2.29199H8.62516Z" fill="white"/>
<path d="M15.258 10.6253C13.5663 10.6253 12.058 9.25866 11.883 7.57533L11.2997 1.73366C11.283 1.55866 11.3413 1.38366 11.458 1.25033C11.5747 1.11699 11.7413 1.04199 11.9247 1.04199H14.4663C16.9163 1.04199 18.058 2.06699 18.3997 4.58366L18.633 6.90033C18.733 7.88366 18.433 8.81699 17.7913 9.52533C17.1497 10.2337 16.2497 10.6253 15.258 10.6253ZM12.6163 2.29199L13.133 7.45033C13.2413 8.49199 14.208 9.37533 15.258 9.37533C15.8913 9.37533 16.458 9.13366 16.8663 8.69199C17.2663 8.25033 17.4497 7.65866 17.3913 7.02533L17.158 4.73366C16.8997 2.85033 16.2913 2.29199 14.4663 2.29199H12.6163Z" fill="white"/>
<path d="M4.69953 10.6253C3.70786 10.6253 2.80786 10.2337 2.1662 9.52533C1.52453 8.81699 1.22453 7.88366 1.32453 6.90033L1.54953 4.60866C1.89953 2.06699 3.0412 1.04199 5.4912 1.04199H8.03286C8.20786 1.04199 8.37453 1.11699 8.49953 1.25033C8.62453 1.38366 8.67453 1.55866 8.65786 1.73366L8.07453 7.57533C7.89953 9.25866 6.3912 10.6253 4.69953 10.6253ZM5.4912 2.29199C3.6662 2.29199 3.05786 2.84199 2.7912 4.75033L2.5662 7.02533C2.49953 7.65866 2.6912 8.25033 3.0912 8.69199C3.4912 9.13366 4.05786 9.37533 4.69953 9.37533C5.74953 9.37533 6.72453 8.49199 6.82453 7.45033L7.3412 2.29199H5.4912Z" fill="white"/>
<path d="M12.0837 18.9587H7.91699C7.57533 18.9587 7.29199 18.6753 7.29199 18.3337V16.2503C7.29199 14.5003 8.25033 13.542 10.0003 13.542C11.7503 13.542 12.7087 14.5003 12.7087 16.2503V18.3337C12.7087 18.6753 12.4253 18.9587 12.0837 18.9587ZM8.54199 17.7087H11.4587V16.2503C11.4587 15.2003 11.0503 14.792 10.0003 14.792C8.95033 14.792 8.54199 15.2003 8.54199 16.2503V17.7087Z" fill="white"/>
</svg>
