<svg width="22" height="23" viewBox="0 0 22 23" fill="none" xmlns="http://www.w3.org/2000/svg">
<path d="M10.3077 1.65786C10.5643 1.04308 11.4353 1.04308 11.6919 1.65786L13.8935 6.93174C13.9961 7.17743 14.2212 7.35034 14.485 7.38604L20.2874 8.17137C20.9376 8.25937 21.1693 9.08085 20.661 9.49567L16.1807 13.1517C15.9593 13.3324 15.8598 13.6234 15.9242 13.9019L17.3566 20.0917C17.5117 20.7619 16.7581 21.2699 16.1951 20.8747L11.4307 17.5308C11.1721 17.3493 10.8275 17.3493 10.569 17.5308L5.80452 20.8748C5.24149 21.2699 4.4879 20.762 4.64297 20.0918L6.07528 13.9019C6.13972 13.6234 6.04024 13.3324 5.81877 13.1517L1.33862 9.49567C0.830299 9.08085 1.06204 8.25937 1.71222 8.17137L7.51461 7.38604C7.77845 7.35034 8.00357 7.17743 8.10614 6.93174L10.3077 1.65786Z" fill="#F4E85B" stroke="#F4E85B" stroke-width="2" stroke-miterlimit="3.3292" stroke-linecap="round" stroke-linejoin="round"/>
</svg>
