<svg width="18" height="18" viewBox="0 0 18 18" fill="none" xmlns="http://www.w3.org/2000/svg">
<path id="Vector" d="M8.44285 1.39485C8.64945 0.899958 9.35058 0.899958 9.55717 1.39485L11.3294 5.64037C11.412 5.83815 11.5932 5.97734 11.8056 6.00609L16.4766 6.63828C17 6.70912 17.1865 7.37042 16.7773 7.70435L13.1707 10.6475C12.9924 10.793 12.9123 11.0272 12.9642 11.2514L14.1173 16.2343C14.2421 16.7738 13.6355 17.1827 13.1822 16.8646L9.34686 14.1727C9.1387 14.0266 8.86132 14.0266 8.65316 14.1727L4.81776 16.8646C4.36451 17.1827 3.75786 16.7738 3.8827 16.2343L5.03572 11.2514C5.08759 11.0272 5.00751 10.793 4.82923 10.6475L1.22268 7.70435C0.81347 7.37042 1.00003 6.70912 1.52342 6.63828L6.19439 6.00609C6.40678 5.97734 6.58801 5.83815 6.67057 5.64037L8.44285 1.39485Z" fill="#54AC8B" stroke="#54AC8B" stroke-miterlimit="3.3292" stroke-linecap="round" stroke-linejoin="round"/>
</svg>
