<svg width="20" height="21" viewBox="0 0 20 21" fill="none" xmlns="http://www.w3.org/2000/svg">
<path d="M10.0003 2.41699C5.40866 2.41699 1.66699 6.15866 1.66699 10.7503C1.66699 15.342 5.40866 19.0837 10.0003 19.0837C14.592 19.0837 18.3337 15.342 18.3337 10.7503C18.3337 6.15866 14.592 2.41699 10.0003 2.41699ZM13.9837 8.83366L9.25866 13.5587C9.14199 13.6753 8.98366 13.742 8.81699 13.742C8.65033 13.742 8.49199 13.6753 8.37533 13.5587L6.01699 11.2003C5.77533 10.9587 5.77533 10.5587 6.01699 10.317C6.25866 10.0753 6.65866 10.0753 6.90033 10.317L8.81699 12.2337L13.1003 7.95033C13.342 7.70866 13.742 7.70866 13.9837 7.95033C14.2253 8.19199 14.2253 8.58366 13.9837 8.83366Z" fill="#4D4D4D"/>
</svg>
