<svg width="21" height="18" viewBox="0 0 21 18" fill="none" xmlns="http://www.w3.org/2000/svg">
<g clip-path="url(#clip0_944_28605)">
<path d="M13.3575 12.7137H4.78889L4.07203 11.4767L3.3567 10.2383H0.5L1.21379 11.4767L1.92912 12.7137L2.64444 13.9521L3.35824 15.1906L4.07203 16.4275L4.78889 17.6659H7.64253L6.93333 16.4275L6.21954 15.1906H14.7973L14.0713 13.9521L13.3575 12.7137Z" fill="url(#paint0_linear_944_28605)"/>
<path d="M19.7861 9.00031L19.0723 7.76186L18.357 9.00031L17.6432 10.2388L16.9294 9.00031L16.214 7.76186L15.5003 6.52494L14.7865 5.28648L14.0711 4.04803L13.3573 2.80957L12.6435 4.04803L11.9282 5.28648L12.6435 6.52494L13.3573 7.76186L14.0711 9.00031L14.7865 10.2388L15.5003 11.4772L16.214 12.7141L15.5003 13.9526L14.7865 15.1911L15.5003 16.428L16.214 17.6664L16.9294 16.428L17.6432 15.1911L18.357 13.9526L19.0723 12.7141L19.7861 11.4772L20.4999 10.2388L19.7861 9.00031Z" fill="url(#paint1_linear_944_28605)"/>
<path d="M6.21504 10.2386L6.93342 9.0001L7.64722 7.76165L8.36254 6.52473L9.07787 5.28627L9.79166 4.04782L10.507 2.80936H13.3576L14.0714 1.57244L14.7867 0.333984H6.20891L5.49971 1.57244L4.78898 2.80936H7.64262L6.93342 4.04782L6.21963 5.28627L5.50431 6.52473L4.78898 7.76165L4.07519 9.0001L3.35986 10.2386H6.21504Z" fill="url(#paint2_linear_944_28605)"/>
</g>
<defs>
<linearGradient id="paint0_linear_944_28605" x1="0.5" y1="10.2383" x2="15.5486" y2="12.3751" gradientUnits="userSpaceOnUse">
<stop stop-color="#FDCD9D"/>
<stop offset="1" stop-color="#F7EF82"/>
</linearGradient>
<linearGradient id="paint1_linear_944_28605" x1="11.9282" y1="2.80957" x2="21.1156" y2="3.20059" gradientUnits="userSpaceOnUse">
<stop stop-color="#FDCD9D"/>
<stop offset="1" stop-color="#F7EF82"/>
</linearGradient>
<linearGradient id="paint2_linear_944_28605" x1="3.35986" y1="0.333984" x2="15.5414" y2="1.37072" gradientUnits="userSpaceOnUse">
<stop stop-color="#FDCD9D"/>
<stop offset="1" stop-color="#F7EF82"/>
</linearGradient>
<clipPath id="clip0_944_28605">
<rect width="20" height="17.3322" fill="white" transform="translate(0.5 0.333984)"/>
</clipPath>
</defs>
</svg>
