<?xml version="1.0" encoding="UTF-8"?>
<svg xmlns="http://www.w3.org/2000/svg" xmlns:xlink="http://www.w3.org/1999/xlink" width="80px" height="80px" viewBox="0 0 80 80" version="1.1">
<defs>
<linearGradient id="linear0" gradientUnits="userSpaceOnUse" x1="84" y1="24" x2="1120.47" y2="114.925" gradientTransform="matrix(0.0701754,0,0,0.0701754,0,0)">
<stop offset="0" style="stop-color:rgb(99.215686%,80.392157%,61.568627%);stop-opacity:1;"/>
<stop offset="1" style="stop-color:rgb(96.862745%,93.72549%,50.980392%);stop-opacity:1;"/>
</linearGradient>
<linearGradient id="linear1" gradientUnits="userSpaceOnUse" x1="84" y1="24" x2="1120.47" y2="114.925" gradientTransform="matrix(0.0701754,0,0,0.0701754,0,0)">
<stop offset="0" style="stop-color:rgb(99.215686%,80.392157%,61.568627%);stop-opacity:1;"/>
<stop offset="1" style="stop-color:rgb(96.862745%,93.72549%,50.980392%);stop-opacity:1;"/>
</linearGradient>
<linearGradient id="linear2" gradientUnits="userSpaceOnUse" x1="84" y1="24" x2="1120.47" y2="114.925" gradientTransform="matrix(0.0701754,0,0,0.0701754,0,0)">
<stop offset="0" style="stop-color:rgb(99.215686%,80.392157%,61.568627%);stop-opacity:1;"/>
<stop offset="1" style="stop-color:rgb(96.862745%,93.72549%,50.980392%);stop-opacity:1;"/>
</linearGradient>
</defs>
<g id="surface1">
<path style=" stroke:none;fill-rule:nonzero;fill:url(#linear0);" d="M 38.265625 13.78125 C 40.757812 9.628906 41.332031 3.726562 38.636719 2.105469 C 35.941406 0.488281 30.996094 3.761719 28.5 7.914062 C 26.398438 11.414062 26.71875 14.414062 28.492188 16.238281 L 14.75 36.972656 C 13.964844 38.167969 14.328125 39.777344 15.554688 40.515625 C 16.78125 41.253906 18.375 40.820312 19.0625 39.5625 L 30.917969 17.699219 C 33.363281 18.398438 36.160156 17.28125 38.265625 13.78125 Z M 16.769531 38.496094 C 16.429688 38.292969 16.316406 37.84375 16.523438 37.503906 C 16.726562 37.164062 17.171875 37.054688 17.515625 37.257812 C 17.855469 37.460938 17.964844 37.910156 17.761719 38.25 C 17.554688 38.597656 17.109375 38.703125 16.769531 38.496094 Z M 16.769531 38.496094 "/>
<path style=" stroke:none;fill-rule:nonzero;fill:url(#linear1);" d="M 29.421875 53.175781 L 5.894531 53.175781 C 6.507812 54.890625 7.636719 56.378906 9.128906 57.429688 C 10.617188 58.476562 12.398438 59.042969 14.222656 59.042969 L 28.019531 59.042969 C 28.792969 59.042969 29.421875 58.414062 29.421875 57.640625 L 29.421875 56.554688 L 48.082031 57.378906 C 48.421875 57.394531 48.757812 57.339844 49.078125 57.222656 C 49.394531 57.101562 49.683594 56.917969 49.929688 56.683594 C 50.175781 56.449219 50.371094 56.164062 50.503906 55.851562 C 50.636719 55.539062 50.707031 55.203125 50.707031 54.863281 C 50.707031 53.425781 49.503906 52.292969 48.082031 52.351562 Z M 48.347656 54.816406 C 48.347656 55.210938 48.023438 55.539062 47.625 55.539062 C 47.230469 55.539062 46.902344 55.210938 46.902344 54.816406 C 46.902344 54.417969 47.230469 54.089844 47.625 54.089844 C 48.03125 54.089844 48.347656 54.417969 48.347656 54.816406 Z M 48.347656 54.816406 "/>
<path style=" stroke:none;fill-rule:nonzero;fill:url(#linear2);" d="M 65.992188 58.804688 C 66.433594 58.429688 66.496094 57.765625 66.195312 57.261719 L 62.140625 50.515625 C 61.992188 50.265625 61.949219 49.96875 62.019531 49.683594 C 62.089844 49.402344 62.269531 49.160156 62.519531 49.007812 C 62.769531 48.859375 63.066406 48.8125 63.351562 48.882812 C 63.632812 48.953125 63.875 49.136719 64.027344 49.386719 L 68.078125 56.132812 C 68.378906 56.628906 68.996094 56.886719 69.535156 56.675781 C 70.222656 56.398438 70.472656 55.597656 70.109375 54.988281 L 66.023438 48.191406 C 65.949219 48.070312 65.902344 47.929688 65.878906 47.789062 C 65.859375 47.644531 65.863281 47.5 65.898438 47.359375 C 65.933594 47.21875 65.996094 47.089844 66.082031 46.972656 C 66.167969 46.855469 66.277344 46.757812 66.398438 46.683594 C 66.523438 46.609375 66.660156 46.5625 66.804688 46.539062 C 66.945312 46.519531 67.09375 46.527344 67.230469 46.558594 C 67.371094 46.59375 67.503906 46.65625 67.621094 46.742188 C 67.734375 46.828125 67.832031 46.9375 67.90625 47.058594 L 71.957031 53.800781 C 72.257812 54.296875 72.875 54.558594 73.414062 54.34375 C 74.097656 54.066406 74.351562 53.265625 73.988281 52.660156 L 69.335938 44.921875 C 67.234375 41.417969 64.433594 40.292969 61.992188 41.003906 L 50.203125 19.261719 C 49.53125 18.023438 47.96875 17.453125 46.726562 18.121094 C 45.414062 18.832031 45.011719 20.503906 45.820312 21.726562 L 59.5625 42.460938 C 57.789062 44.285156 57.46875 47.285156 59.574219 50.785156 L 64.222656 58.527344 C 64.597656 59.125 65.425781 59.277344 65.992188 58.804688 Z M 47.84375 20.191406 C 48.183594 19.988281 48.628906 20.097656 48.835938 20.441406 C 49.039062 20.78125 48.929688 21.226562 48.585938 21.429688 C 48.246094 21.636719 47.800781 21.523438 47.59375 21.183594 C 47.386719 20.835938 47.5 20.398438 47.84375 20.191406 Z M 47.84375 20.191406 "/>
</g>
</svg>
