<?xml version="1.0" encoding="UTF-8"?>
<svg xmlns="http://www.w3.org/2000/svg" xmlns:xlink="http://www.w3.org/1999/xlink" width="199px" height="46px" viewBox="0 0 197 46" version="1.1">
<defs>
<clipPath id="clip1">
  <path d="M 0.777344 38 L 31 38 L 31 42.816406 L 0.777344 42.816406 Z M 0.777344 38 "/>
</clipPath>
<clipPath id="clip2">
  <path d="M 26 15 L 45 15 L 45 42.816406 L 26 42.816406 Z M 26 15 "/>
</clipPath>
</defs>
<g id="surface1">
<path style=" stroke:none;fill-rule:nonzero;fill:rgb(100%,100%,100%);fill-opacity:1;" d="M 21.949219 12.832031 C 23.582031 10.109375 23.953125 6.238281 22.191406 5.179688 C 20.429688 4.117188 17.195312 6.265625 15.5625 8.984375 C 14.1875 11.28125 14.398438 13.246094 15.554688 14.441406 L 6.570312 28.03125 C 6.054688 28.816406 6.292969 29.871094 7.097656 30.355469 C 7.898438 30.839844 8.941406 30.554688 9.390625 29.730469 L 17.144531 15.398438 C 18.746094 15.859375 20.574219 15.125 21.949219 12.832031 Z M 7.890625 29.03125 C 7.667969 28.898438 7.59375 28.605469 7.726562 28.382812 C 7.863281 28.160156 8.152344 28.085938 8.375 28.21875 C 8.601562 28.355469 8.671875 28.648438 8.539062 28.871094 C 8.402344 29.097656 8.113281 29.167969 7.890625 29.03125 Z M 7.890625 29.03125 "/>
<g clip-path="url(#clip1)" clip-rule="nonzero">
<path style=" stroke:none;fill-rule:nonzero;fill:rgb(100%,100%,100%);fill-opacity:1;" d="M 16.164062 38.652344 L 0.777344 38.652344 C 1.175781 39.777344 1.917969 40.753906 2.890625 41.441406 C 3.867188 42.128906 5.03125 42.5 6.222656 42.5 L 15.246094 42.5 C 15.753906 42.5 16.164062 42.085938 16.164062 41.582031 L 16.164062 40.871094 L 28.371094 41.410156 C 28.59375 41.421875 28.8125 41.382812 29.023438 41.304688 C 29.230469 41.226562 29.417969 41.105469 29.578125 40.953125 C 29.738281 40.800781 29.867188 40.613281 29.953125 40.410156 C 30.042969 40.203125 30.085938 39.984375 30.085938 39.761719 C 30.085938 38.820312 29.300781 38.074219 28.371094 38.113281 Z M 28.546875 39.730469 C 28.546875 39.988281 28.332031 40.203125 28.074219 40.203125 C 27.8125 40.203125 27.601562 39.988281 27.601562 39.730469 C 27.601562 39.46875 27.8125 39.253906 28.074219 39.253906 C 28.335938 39.253906 28.546875 39.46875 28.546875 39.730469 Z M 28.546875 39.730469 "/>
</g>
<g clip-path="url(#clip2)" clip-rule="nonzero">
<path style=" stroke:none;fill-rule:nonzero;fill:rgb(100%,100%,100%);fill-opacity:1;" d="M 39.566406 42.34375 C 39.855469 42.097656 39.898438 41.664062 39.703125 41.332031 L 37.050781 36.910156 C 36.953125 36.746094 36.921875 36.550781 36.96875 36.367188 C 37.015625 36.179688 37.132812 36.019531 37.296875 35.921875 C 37.460938 35.824219 37.65625 35.796875 37.839844 35.839844 C 38.023438 35.886719 38.183594 36.003906 38.28125 36.167969 L 40.933594 40.59375 C 41.128906 40.917969 41.535156 41.085938 41.886719 40.945312 C 42.335938 40.765625 42.5 40.242188 42.261719 39.84375 L 39.589844 35.386719 C 39.542969 35.304688 39.507812 35.214844 39.496094 35.125 C 39.480469 35.03125 39.484375 34.933594 39.507812 34.84375 C 39.53125 34.75 39.570312 34.664062 39.628906 34.589844 C 39.683594 34.511719 39.753906 34.449219 39.835938 34.398438 C 39.917969 34.351562 40.007812 34.316406 40.097656 34.304688 C 40.191406 34.289062 40.289062 34.296875 40.378906 34.316406 C 40.472656 34.339844 40.558594 34.382812 40.632812 34.4375 C 40.707031 34.492188 40.773438 34.566406 40.820312 34.644531 L 43.472656 39.0625 C 43.664062 39.390625 44.070312 39.558594 44.421875 39.417969 C 44.871094 39.238281 45.035156 38.714844 44.796875 38.316406 L 41.757812 33.242188 C 40.378906 30.949219 38.546875 30.210938 36.953125 30.675781 L 29.242188 16.425781 C 28.800781 15.609375 27.777344 15.238281 26.964844 15.675781 C 26.109375 16.144531 25.84375 17.238281 26.375 18.039062 L 35.363281 31.632812 C 34.203125 32.828125 33.992188 34.792969 35.371094 37.089844 L 38.410156 42.160156 C 38.65625 42.554688 39.199219 42.65625 39.566406 42.34375 Z M 27.695312 17.035156 C 27.921875 16.898438 28.210938 16.972656 28.347656 17.195312 C 28.480469 17.417969 28.40625 17.710938 28.183594 17.84375 C 27.960938 17.980469 27.667969 17.90625 27.535156 17.683594 C 27.398438 17.457031 27.472656 17.167969 27.695312 17.035156 Z M 27.695312 17.035156 "/>
</g>
<path style=" stroke:none;fill-rule:nonzero;fill:rgb(100%,100%,100%);fill-opacity:1;" d="M 58.394531 38.214844 L 58.394531 17.710938 L 51.71875 17.710938 L 51.71875 14.179688 L 69.5625 14.179688 L 69.5625 17.710938 L 62.886719 17.710938 L 62.886719 38.214844 Z M 73.152344 38.214844 L 73.152344 14.179688 L 81.199219 14.179688 C 86.464844 14.179688 90.15625 16.332031 90.15625 21.238281 L 90.15625 21.375 C 90.15625 25.140625 87.808594 27.054688 84.824219 27.828125 L 91.5625 38.214844 L 86.734375 38.214844 L 80.460938 28.5 L 77.609375 28.5 L 77.609375 38.214844 Z M 77.609375 25.308594 L 81.199219 25.308594 C 84.183594 25.308594 85.761719 24.03125 85.761719 21.476562 L 85.761719 21.339844 C 85.761719 18.585938 84.050781 17.644531 81.199219 17.644531 L 77.609375 17.644531 Z M 95.261719 38.214844 L 95.261719 14.179688 L 99.757812 14.179688 L 99.757812 38.214844 Z M 105.746094 38.214844 L 105.746094 14.179688 L 119.398438 14.179688 L 119.398438 15.726562 L 107.625 15.726562 L 107.625 25.273438 L 116.882812 25.273438 L 116.882812 26.820312 L 107.625 26.820312 L 107.625 38.214844 Z M 133.800781 36.90625 C 139.535156 36.90625 143.460938 32.398438 143.460938 26.25 L 143.460938 25.980469 C 143.460938 20.128906 139.601562 15.457031 133.734375 15.457031 C 127.863281 15.457031 123.972656 19.996094 123.972656 26.046875 L 123.972656 26.316406 C 123.972656 32.433594 128.234375 36.90625 133.800781 36.90625 Z M 133.800781 38.484375 C 126.957031 38.484375 122.0625 33.070312 122.0625 26.347656 L 122.0625 26.082031 C 122.0625 19.257812 126.992188 13.910156 133.734375 13.910156 C 140.507812 13.910156 145.40625 19.257812 145.40625 26.011719 L 145.40625 26.28125 C 145.40625 33.070312 140.507812 38.484375 133.800781 38.484375 Z M 160.65625 36.90625 C 166.394531 36.90625 170.316406 32.398438 170.316406 26.25 L 170.316406 25.980469 C 170.316406 20.128906 166.460938 15.457031 160.589844 15.457031 C 154.722656 15.457031 150.832031 19.996094 150.832031 26.046875 L 150.832031 26.316406 C 150.832031 32.433594 155.089844 36.90625 160.65625 36.90625 Z M 160.65625 38.484375 C 153.816406 38.484375 148.917969 33.070312 148.917969 26.347656 L 148.917969 26.082031 C 148.917969 19.257812 153.847656 13.910156 160.589844 13.910156 C 167.367188 13.910156 172.261719 19.257812 172.261719 26.011719 L 172.261719 26.28125 C 172.261719 33.070312 167.367188 38.484375 160.65625 38.484375 Z M 178.960938 36.667969 L 183.1875 36.667969 C 189.996094 36.667969 193.316406 32.367188 193.316406 26.25 L 193.316406 25.980469 C 193.316406 20.0625 190.199219 15.726562 183.15625 15.726562 L 178.960938 15.726562 Z M 177.085938 38.214844 L 177.085938 14.179688 L 183.324219 14.179688 C 191.238281 14.179688 195.261719 19.289062 195.261719 25.980469 L 195.261719 26.28125 C 195.261719 32.9375 191.441406 38.214844 183.257812 38.214844 Z M 177.085938 38.214844 "/>
</g>
</svg>
