<svg width="20" height="20" viewBox="0 0 20 20" fill="none" xmlns="http://www.w3.org/2000/svg">
<path d="M10.8334 12.2921H1.66669C1.32502 12.2921 1.04169 12.0087 1.04169 11.6671V6.3504C1.04169 6.08374 1.20835 5.85038 1.45001 5.75872C1.70001 5.66705 1.97503 5.74208 2.14169 5.94208C2.65003 6.55041 3.44169 6.89207 4.22503 6.86707C4.89169 6.8504 5.50834 6.60042 5.97501 6.15875C6.19167 5.97542 6.36668 5.75874 6.50001 5.51707C6.75834 5.0754 6.88335 4.59206 6.87502 4.10039C6.85835 3.33373 6.52504 2.63373 5.95837 2.1254C5.75837 1.9504 5.69169 1.67538 5.78336 1.43372C5.87502 1.19205 6.10837 1.02539 6.3667 1.02539H12.5C12.8417 1.02539 13.125 1.30872 13.125 1.65039V9.98372C13.125 11.2671 12.1 12.2921 10.8334 12.2921ZM2.29169 11.0421H10.8334C11.4084 11.0421 11.875 10.5754 11.875 10.0004V2.29207H7.65836C7.95002 2.83374 8.10835 3.44209 8.12502 4.07542C8.14169 4.80042 7.95834 5.51707 7.59167 6.14207C7.39167 6.5004 7.11668 6.84208 6.81668 7.09208C6.15001 7.72542 5.23334 8.10041 4.25834 8.12541C3.55834 8.15041 2.88336 7.97541 2.30003 7.65874V11.0421H2.29169Z" fill="white"/>
<path d="M15.8334 17.291H15C14.6584 17.291 14.375 17.0077 14.375 16.666C14.375 16.091 13.9084 15.6243 13.3334 15.6243C12.7584 15.6243 12.2917 16.091 12.2917 16.666C12.2917 17.0077 12.0084 17.291 11.6667 17.291H8.33335C7.99169 17.291 7.70835 17.0077 7.70835 16.666C7.70835 16.091 7.24169 15.6243 6.66669 15.6243C6.09169 15.6243 5.62502 16.091 5.62502 16.666C5.62502 17.0077 5.34169 17.291 5.00002 17.291H4.16669C2.44169 17.291 1.04169 15.891 1.04169 14.166V11.666C1.04169 11.3243 1.32502 11.041 1.66669 11.041H10.8334C11.4084 11.041 11.875 10.5743 11.875 9.99935V4.16602C11.875 3.82435 12.1584 3.54102 12.5 3.54102H14.0334C14.8584 3.54102 15.6167 3.98269 16.025 4.69936L17.45 7.19102C17.5584 7.38269 17.5584 7.62435 17.45 7.81602C17.3417 8.00769 17.1333 8.12435 16.9083 8.12435H15.8334C15.7167 8.12435 15.625 8.21602 15.625 8.33268V10.8327C15.625 10.9493 15.7167 11.041 15.8334 11.041H18.3334C18.675 11.041 18.9584 11.3243 18.9584 11.666V14.166C18.9584 15.891 17.5584 17.291 15.8334 17.291ZM15.5417 16.041H15.8334C16.8667 16.041 17.7084 15.1993 17.7084 14.166V12.291H15.8334C15.0334 12.291 14.375 11.6327 14.375 10.8327V8.33268C14.375 7.53268 15.025 6.87435 15.8334 6.87435L14.9417 5.31602C14.7583 4.99102 14.4084 4.79102 14.0334 4.79102H13.125V9.99935C13.125 11.266 12.1 12.291 10.8334 12.291H2.29169V14.166C2.29169 15.1993 3.13335 16.041 4.16669 16.041H4.45833C4.73333 15.0827 5.61669 14.3743 6.66669 14.3743C7.71669 14.3743 8.60004 15.0827 8.87504 16.041H11.1333C11.4083 15.0827 12.2917 14.3743 13.3417 14.3743C14.3917 14.3743 15.2667 15.0827 15.5417 16.041Z" fill="white"/>
<path d="M6.66667 18.9583C5.4 18.9583 4.375 17.9333 4.375 16.6667C4.375 15.4 5.4 14.375 6.66667 14.375C7.93333 14.375 8.95833 15.4 8.95833 16.6667C8.95833 17.9333 7.93333 18.9583 6.66667 18.9583ZM6.66667 15.625C6.09167 15.625 5.625 16.0917 5.625 16.6667C5.625 17.2417 6.09167 17.7083 6.66667 17.7083C7.24167 17.7083 7.70833 17.2417 7.70833 16.6667C7.70833 16.0917 7.24167 15.625 6.66667 15.625Z" fill="white"/>
<path d="M13.3334 18.9583C12.0667 18.9583 11.0417 17.9333 11.0417 16.6667C11.0417 15.4 12.0667 14.375 13.3334 14.375C14.6 14.375 15.625 15.4 15.625 16.6667C15.625 17.9333 14.6 18.9583 13.3334 18.9583ZM13.3334 15.625C12.7584 15.625 12.2917 16.0917 12.2917 16.6667C12.2917 17.2417 12.7584 17.7083 13.3334 17.7083C13.9084 17.7083 14.375 17.2417 14.375 16.6667C14.375 16.0917 13.9084 15.625 13.3334 15.625Z" fill="white"/>
<path d="M18.3333 12.2917H15.8333C15.0333 12.2917 14.375 11.6333 14.375 10.8333V8.33333C14.375 7.53333 15.0333 6.875 15.8333 6.875H16.9083C17.1333 6.875 17.3417 6.99167 17.45 7.19167L18.875 9.69167C18.925 9.78334 18.9583 9.89167 18.9583 10V11.6667C18.9583 12.0083 18.675 12.2917 18.3333 12.2917ZM15.8333 8.125C15.7167 8.125 15.625 8.21667 15.625 8.33333V10.8333C15.625 10.95 15.7167 11.0417 15.8333 11.0417H17.7083V10.1667L16.5416 8.125H15.8333Z" fill="white"/>
<path d="M4.15844 8.12565C3.00844 8.12565 1.92511 7.62563 1.19178 6.75063C1.07511 6.62563 0.950123 6.45063 0.84179 6.28397C0.450123 5.6923 0.233457 4.99231 0.21679 4.25897C0.183457 3.04231 0.700133 1.90063 1.63347 1.12563C2.3418 0.542297 3.19176 0.225651 4.09176 0.208984C5.07509 0.217318 6.05847 0.54232 6.7918 1.20065C7.62513 1.93399 8.10846 2.959 8.13346 4.07566C8.15012 4.80066 7.96678 5.51731 7.60011 6.14231C7.40011 6.50065 7.12512 6.84233 6.82512 7.09233C6.15845 7.72566 5.24178 8.10065 4.26678 8.12565C4.22511 8.12565 4.19177 8.12565 4.15844 8.12565ZM4.15844 1.45898C4.14177 1.45898 4.12511 1.45898 4.10844 1.45898C3.50011 1.46732 2.91676 1.69233 2.42509 2.09233C1.79176 2.61733 1.44178 3.40066 1.45845 4.22566C1.47511 4.72566 1.61679 5.20067 1.88346 5.59234C1.95846 5.709 2.03344 5.8173 2.1251 5.9173C2.65844 6.55063 3.45012 6.88398 4.22512 6.86731C4.89179 6.85064 5.50843 6.60066 5.9751 6.159C6.19177 5.97566 6.36677 5.75898 6.5001 5.51731C6.75844 5.07565 6.88345 4.5923 6.87511 4.10064C6.85845 3.33397 6.52514 2.63397 5.95847 2.12564C5.45847 1.70064 4.82511 1.45898 4.15844 1.45898Z" fill="white"/>
<path d="M3.70825 5.62539C3.54992 5.62539 3.3999 5.56703 3.2749 5.45037L2.43323 4.6504C2.18323 4.40873 2.17493 4.01707 2.41659 3.76707C2.65826 3.51707 3.04993 3.50872 3.29993 3.75039L3.70825 4.14203L5.01659 2.8754C5.26659 2.63373 5.65826 2.64203 5.89992 2.89203C6.14159 3.14203 6.13324 3.53374 5.88324 3.77541L4.14155 5.45871C4.01655 5.56704 3.85825 5.62539 3.70825 5.62539Z" fill="white"/>
</svg>
