<svg width="20" height="20" viewBox="0 0 20 20" fill="none" xmlns="http://www.w3.org/2000/svg">
<path d="M10.8332 12.2921H1.6665C1.32484 12.2921 1.0415 12.0087 1.0415 11.6671V6.3504C1.0415 6.08374 1.20816 5.85038 1.44983 5.75872C1.69983 5.66705 1.97484 5.74208 2.14151 5.94208C2.64984 6.55041 3.44151 6.89207 4.22484 6.86707C4.89151 6.8504 5.50816 6.60042 5.97482 6.15875C6.19149 5.97542 6.36649 5.75874 6.49983 5.51707C6.75816 5.0754 6.88317 4.59206 6.87484 4.10039C6.85817 3.33373 6.52486 2.63373 5.95819 2.1254C5.75819 1.9504 5.69151 1.67538 5.78317 1.43372C5.87484 1.19205 6.10818 1.02539 6.36652 1.02539H12.4998C12.8415 1.02539 13.1248 1.30872 13.1248 1.65039V9.98372C13.1248 11.2671 12.0998 12.2921 10.8332 12.2921ZM2.2915 11.0421H10.8332C11.4082 11.0421 11.8748 10.5754 11.8748 10.0004V2.29207H7.65817C7.94984 2.83374 8.10817 3.44209 8.12484 4.07542C8.1415 4.80042 7.95816 5.51707 7.59149 6.14207C7.39149 6.5004 7.1165 6.84208 6.8165 7.09208C6.14983 7.72542 5.23316 8.10041 4.25816 8.12541C3.55816 8.15041 2.88318 7.97541 2.29985 7.65874V11.0421H2.2915Z" fill="url(#paint0_linear_783_8773)"/>
<path d="M15.8332 17.291H14.9998C14.6582 17.291 14.3748 17.0077 14.3748 16.666C14.3748 16.091 13.9082 15.6243 13.3332 15.6243C12.7582 15.6243 12.2915 16.091 12.2915 16.666C12.2915 17.0077 12.0082 17.291 11.6665 17.291H8.33317C7.9915 17.291 7.70817 17.0077 7.70817 16.666C7.70817 16.091 7.2415 15.6243 6.6665 15.6243C6.0915 15.6243 5.62484 16.091 5.62484 16.666C5.62484 17.0077 5.3415 17.291 4.99984 17.291H4.1665C2.4415 17.291 1.0415 15.891 1.0415 14.166V11.666C1.0415 11.3243 1.32484 11.041 1.6665 11.041H10.8332C11.4082 11.041 11.8748 10.5743 11.8748 9.99935V4.16602C11.8748 3.82435 12.1582 3.54102 12.4998 3.54102H14.0332C14.8582 3.54102 15.6165 3.98269 16.0248 4.69936L17.4498 7.19102C17.5582 7.38269 17.5582 7.62435 17.4498 7.81602C17.3415 8.00769 17.1332 8.12435 16.9082 8.12435H15.8332C15.7165 8.12435 15.6248 8.21602 15.6248 8.33268V10.8327C15.6248 10.9493 15.7165 11.041 15.8332 11.041H18.3332C18.6748 11.041 18.9582 11.3243 18.9582 11.666V14.166C18.9582 15.891 17.5582 17.291 15.8332 17.291ZM15.5415 16.041H15.8332C16.8665 16.041 17.7082 15.1993 17.7082 14.166V12.291H15.8332C15.0332 12.291 14.3748 11.6327 14.3748 10.8327V8.33268C14.3748 7.53268 15.0248 6.87435 15.8332 6.87435L14.9415 5.31602C14.7582 4.99102 14.4082 4.79102 14.0332 4.79102H13.1248V9.99935C13.1248 11.266 12.0998 12.291 10.8332 12.291H2.2915V14.166C2.2915 15.1993 3.13317 16.041 4.1665 16.041H4.45815C4.73315 15.0827 5.6165 14.3743 6.6665 14.3743C7.7165 14.3743 8.59986 15.0827 8.87486 16.041H11.1332C11.4082 15.0827 12.2915 14.3743 13.3415 14.3743C14.3915 14.3743 15.2665 15.0827 15.5415 16.041Z" fill="url(#paint1_linear_783_8773)"/>
<path d="M6.66667 18.9583C5.4 18.9583 4.375 17.9333 4.375 16.6667C4.375 15.4 5.4 14.375 6.66667 14.375C7.93333 14.375 8.95833 15.4 8.95833 16.6667C8.95833 17.9333 7.93333 18.9583 6.66667 18.9583ZM6.66667 15.625C6.09167 15.625 5.625 16.0917 5.625 16.6667C5.625 17.2417 6.09167 17.7083 6.66667 17.7083C7.24167 17.7083 7.70833 17.2417 7.70833 16.6667C7.70833 16.0917 7.24167 15.625 6.66667 15.625Z" fill="url(#paint2_linear_783_8773)"/>
<path d="M13.3332 18.9583C12.0665 18.9583 11.0415 17.9333 11.0415 16.6667C11.0415 15.4 12.0665 14.375 13.3332 14.375C14.5998 14.375 15.6248 15.4 15.6248 16.6667C15.6248 17.9333 14.5998 18.9583 13.3332 18.9583ZM13.3332 15.625C12.7582 15.625 12.2915 16.0917 12.2915 16.6667C12.2915 17.2417 12.7582 17.7083 13.3332 17.7083C13.9082 17.7083 14.3748 17.2417 14.3748 16.6667C14.3748 16.0917 13.9082 15.625 13.3332 15.625Z" fill="url(#paint3_linear_783_8773)"/>
<path d="M18.3333 12.2917H15.8333C15.0333 12.2917 14.375 11.6333 14.375 10.8333V8.33333C14.375 7.53333 15.0333 6.875 15.8333 6.875H16.9083C17.1333 6.875 17.3417 6.99167 17.45 7.19167L18.875 9.69167C18.925 9.78334 18.9583 9.89167 18.9583 10V11.6667C18.9583 12.0083 18.675 12.2917 18.3333 12.2917ZM15.8333 8.125C15.7167 8.125 15.625 8.21667 15.625 8.33333V10.8333C15.625 10.95 15.7167 11.0417 15.8333 11.0417H17.7083V10.1667L16.5416 8.125H15.8333Z" fill="url(#paint4_linear_783_8773)"/>
<path d="M4.1585 8.12565C3.0085 8.12565 1.92517 7.62563 1.19184 6.75063C1.07517 6.62563 0.950184 6.45063 0.841851 6.28397C0.450184 5.6923 0.233518 4.99231 0.216851 4.25897C0.183518 3.04231 0.700194 1.90063 1.63353 1.12563C2.34186 0.542297 3.19182 0.225651 4.09182 0.208984C5.07515 0.217318 6.05853 0.54232 6.79186 1.20065C7.6252 1.93399 8.10852 2.959 8.13352 4.07566C8.15018 4.80066 7.96684 5.51731 7.60017 6.14231C7.40017 6.50065 7.12518 6.84233 6.82518 7.09233C6.15851 7.72566 5.24184 8.10065 4.26684 8.12565C4.22517 8.12565 4.19183 8.12565 4.1585 8.12565ZM4.1585 1.45898C4.14183 1.45898 4.12517 1.45898 4.1085 1.45898C3.50017 1.46732 2.91682 1.69233 2.42515 2.09233C1.79182 2.61733 1.44184 3.40066 1.45851 4.22566C1.47518 4.72566 1.61685 5.20067 1.88352 5.59234C1.95852 5.709 2.0335 5.8173 2.12517 5.9173C2.6585 6.55063 3.45018 6.88398 4.22518 6.86731C4.89185 6.85064 5.50849 6.60066 5.97516 6.159C6.19183 5.97566 6.36683 5.75898 6.50017 5.51731C6.7585 5.07565 6.88351 4.5923 6.87518 4.10064C6.85851 3.33397 6.5252 2.63397 5.95853 2.12564C5.45853 1.70064 4.82517 1.45898 4.1585 1.45898Z" fill="url(#paint5_linear_783_8773)"/>
<path d="M3.70807 5.62539C3.54973 5.62539 3.39972 5.56703 3.27472 5.45037L2.43304 4.6504C2.18304 4.40873 2.17475 4.01707 2.41641 3.76707C2.65808 3.51707 3.04974 3.50872 3.29974 3.75039L3.70807 4.14203L5.01641 2.8754C5.26641 2.63373 5.65807 2.64203 5.89974 2.89203C6.14141 3.14203 6.13306 3.53374 5.88306 3.77541L4.14137 5.45871C4.01637 5.56704 3.85807 5.62539 3.70807 5.62539Z" fill="url(#paint6_linear_783_8773)"/>
<defs>
<linearGradient id="paint0_linear_783_8773" x1="1.0415" y1="1.02539" x2="13.9355" y2="2.04552" gradientUnits="userSpaceOnUse">
<stop stop-color="#FDCD9D"/>
<stop offset="1" stop-color="#F7EF83"/>
</linearGradient>
<linearGradient id="paint1_linear_783_8773" x1="1.0415" y1="3.54102" x2="20.1037" y2="5.37335" gradientUnits="userSpaceOnUse">
<stop stop-color="#FDCD9D"/>
<stop offset="1" stop-color="#F7EF82"/>
</linearGradient>
<linearGradient id="paint2_linear_783_8773" x1="4.375" y1="14.375" x2="9.2698" y2="14.7361" gradientUnits="userSpaceOnUse">
<stop stop-color="#FDCD9D"/>
<stop offset="1" stop-color="#F7EF82"/>
</linearGradient>
<linearGradient id="paint3_linear_783_8773" x1="11.0415" y1="14.375" x2="15.9363" y2="14.7361" gradientUnits="userSpaceOnUse">
<stop stop-color="#FDCD9D"/>
<stop offset="1" stop-color="#F7EF82"/>
</linearGradient>
<linearGradient id="paint4_linear_783_8773" x1="14.375" y1="6.875" x2="19.2773" y2="7.181" gradientUnits="userSpaceOnUse">
<stop stop-color="#FDCD9D"/>
<stop offset="1" stop-color="#F7EF82"/>
</linearGradient>
<linearGradient id="paint5_linear_783_8773" x1="0.215332" y1="0.208984" x2="8.6727" y2="0.83308" gradientUnits="userSpaceOnUse">
<stop stop-color="#FDCD9D"/>
<stop offset="1" stop-color="#F7EF82"/>
</linearGradient>
<linearGradient id="paint6_linear_783_8773" x1="2.24023" y1="2.69922" x2="6.32069" y2="3.09379" gradientUnits="userSpaceOnUse">
<stop stop-color="#FDCD9D"/>
<stop offset="1" stop-color="#F7EF82"/>
</linearGradient>
</defs>
</svg>
