<svg width="114" height="114" viewBox="0 0 114 114" fill="none" xmlns="http://www.w3.org/2000/svg">
<path d="M54.4354 65.2174C61.807 65.2174 67.7829 59.2416 67.7829 51.8699C67.7829 44.4983 61.807 38.5225 54.4354 38.5225C47.0638 38.5225 41.0879 44.4983 41.0879 51.8699C41.0879 59.2416 47.0638 65.2174 54.4354 65.2174Z" stroke="#F9F2A6" stroke-width="2" stroke-linecap="round" stroke-linejoin="round"/>
<path d="M79.0877 95.9501C79.0877 84.8826 68.0677 75.8574 54.4352 75.8574C40.8027 75.8574 29.7827 84.8351 29.7827 95.9501" stroke="#F9F2A6" stroke-width="2" stroke-linecap="round" stroke-linejoin="round"/>
<path d="M99.75 59.375C99.75 84.3125 79.5625 104.5 54.625 104.5C29.6875 104.5 9.5 84.3125 9.5 59.375C9.5 34.4375 29.6875 14.25 54.625 14.25C60.8475 14.25 66.785 15.485 72.2 17.765C71.5825 19.665 71.25 21.66 71.25 23.75C71.25 27.3125 72.2475 30.685 74.005 33.535C74.955 35.15 76.19 36.6224 77.615 37.8574C80.94 40.8974 85.3575 42.75 90.25 42.75C92.34 42.75 94.335 42.4174 96.1875 41.7524C98.4675 47.1674 99.75 53.1525 99.75 59.375Z" stroke="#F9F2A6" stroke-width="2" stroke-linecap="round" stroke-linejoin="round"/>
<path d="M109.25 23.75C109.25 25.27 109.06 26.7425 108.68 28.1675C108.252 30.0675 107.492 31.92 106.495 33.535C104.215 37.3825 100.558 40.3749 96.1875 41.7524C94.335 42.4174 92.34 42.75 90.25 42.75C85.3575 42.75 80.94 40.8974 77.615 37.8574C76.19 36.6224 74.955 35.15 74.005 33.535C72.2475 30.685 71.25 27.3125 71.25 23.75C71.25 21.66 71.5825 19.665 72.2 17.765C73.1025 15.01 74.6225 12.5401 76.6175 10.4976C80.085 6.9351 84.93 4.75 90.25 4.75C95.855 4.75 100.938 7.17258 104.358 11.0676C107.398 14.4401 109.25 18.905 109.25 23.75Z" stroke="#F9F2A6" stroke-width="2" stroke-miterlimit="10" stroke-linecap="round" stroke-linejoin="round"/>
<path d="M97.3274 23.655H83.1724" stroke="#F9F2A6" stroke-width="2" stroke-miterlimit="10" stroke-linecap="round" stroke-linejoin="round"/>
<path d="M90.25 16.7202V30.9227" stroke="#F9F2A6" stroke-width="2" stroke-miterlimit="10" stroke-linecap="round" stroke-linejoin="round"/>
</svg>
