<svg width="20" height="20" viewBox="0 0 20 20" fill="none" xmlns="http://www.w3.org/2000/svg">
<path d="M10.0003 18.9583C9.44196 18.9583 8.87529 18.8166 8.37529 18.5249L3.42529 15.6666C2.42529 15.0833 1.80029 14.0083 1.80029 12.8499V7.14997C1.80029 5.99164 2.42529 4.91664 3.42529 4.3333L8.37529 1.47498C9.37529 0.891642 10.617 0.891642 11.6253 1.47498L16.5753 4.3333C17.5753 4.91664 18.2003 5.99164 18.2003 7.14997V12.8499C18.2003 14.0083 17.5753 15.0833 16.5753 15.6666L11.6253 18.5249C11.1253 18.8166 10.5586 18.9583 10.0003 18.9583ZM10.0003 2.29163C9.65863 2.29163 9.30863 2.3833 9.00029 2.5583L4.05029 5.41663C3.43363 5.77496 3.05029 6.43331 3.05029 7.14997V12.8499C3.05029 13.5583 3.43363 14.225 4.05029 14.5833L9.00029 17.4416C9.61696 17.8 10.3836 17.8 11.0003 17.4416L15.9503 14.5833C16.567 14.225 16.9503 13.5666 16.9503 12.8499V7.14997C16.9503 6.44164 16.567 5.77496 15.9503 5.41663L11.0003 2.5583C10.692 2.3833 10.342 2.29163 10.0003 2.29163Z" fill="#E3F1EC"/>
<path d="M9.99977 9.79176C8.58311 9.79176 7.43311 8.64174 7.43311 7.22508C7.43311 5.80841 8.58311 4.65845 9.99977 4.65845C11.4164 4.65845 12.5664 5.80841 12.5664 7.22508C12.5664 8.64174 11.4164 9.79176 9.99977 9.79176ZM9.99977 5.90845C9.27477 5.90845 8.68311 6.50008 8.68311 7.22508C8.68311 7.95008 9.27477 8.54176 9.99977 8.54176C10.7248 8.54176 11.3164 7.95008 11.3164 7.22508C11.3164 6.50008 10.7248 5.90845 9.99977 5.90845Z" fill="#E3F1EC"/>
<path d="M13.3332 14.5084C12.9915 14.5084 12.7082 14.225 12.7082 13.8834C12.7082 12.7334 11.4915 11.7917 9.99984 11.7917C8.50817 11.7917 7.2915 12.7334 7.2915 13.8834C7.2915 14.225 7.00817 14.5084 6.6665 14.5084C6.32484 14.5084 6.0415 14.225 6.0415 13.8834C6.0415 12.0417 7.8165 10.5417 9.99984 10.5417C12.1832 10.5417 13.9582 12.0417 13.9582 13.8834C13.9582 14.225 13.6748 14.5084 13.3332 14.5084Z" fill="#E3F1EC"/>
</svg>
