<svg width="20" height="20" viewBox="0 0 20 20" fill="none" xmlns="http://www.w3.org/2000/svg">
<path d="M10.0003 18.9579C9.44196 18.9579 8.87529 18.8162 8.37529 18.5246L3.42529 15.6662C2.42529 15.0829 1.80029 14.0079 1.80029 12.8496V7.14961C1.80029 5.99127 2.42529 4.91627 3.42529 4.33294L8.37529 1.47461C9.37529 0.891276 10.617 0.891276 11.6253 1.47461L16.5753 4.33294C17.5753 4.91627 18.2003 5.99127 18.2003 7.14961V12.8496C18.2003 14.0079 17.5753 15.0829 16.5753 15.6662L11.6253 18.5246C11.1253 18.8162 10.5586 18.9579 10.0003 18.9579ZM10.0003 2.29126C9.65863 2.29126 9.30863 2.38293 9.00029 2.55793L4.05029 5.41626C3.43363 5.77459 3.05029 6.43294 3.05029 7.14961V12.8496C3.05029 13.5579 3.43363 14.2246 4.05029 14.5829L9.00029 17.4413C9.61696 17.7996 10.3836 17.7996 11.0003 17.4413L15.9503 14.5829C16.567 14.2246 16.9503 13.5662 16.9503 12.8496V7.14961C16.9503 6.44127 16.567 5.77459 15.9503 5.41626L11.0003 2.55793C10.692 2.38293 10.342 2.29126 10.0003 2.29126Z" fill="white"/>
<path d="M9.99977 9.79151C8.58311 9.79151 7.43311 8.6415 7.43311 7.22483C7.43311 5.80817 8.58311 4.6582 9.99977 4.6582C11.4164 4.6582 12.5664 5.80817 12.5664 7.22483C12.5664 8.6415 11.4164 9.79151 9.99977 9.79151ZM9.99977 5.9082C9.27477 5.9082 8.68311 6.49983 8.68311 7.22483C8.68311 7.94983 9.27477 8.54151 9.99977 8.54151C10.7248 8.54151 11.3164 7.94983 11.3164 7.22483C11.3164 6.49983 10.7248 5.9082 9.99977 5.9082Z" fill="white"/>
<path d="M13.3332 14.5076C12.9915 14.5076 12.7082 14.2243 12.7082 13.8826C12.7082 12.7326 11.4915 11.791 9.99984 11.791C8.50817 11.791 7.2915 12.7326 7.2915 13.8826C7.2915 14.2243 7.00817 14.5076 6.6665 14.5076C6.32484 14.5076 6.0415 14.2243 6.0415 13.8826C6.0415 12.041 7.8165 10.541 9.99984 10.541C12.1832 10.541 13.9582 12.041 13.9582 13.8826C13.9582 14.2243 13.6748 14.5076 13.3332 14.5076Z" fill="white"/>
</svg>
