<svg width="20" height="20" viewBox="0 0 20 20" fill="none" xmlns="http://www.w3.org/2000/svg">
<path d="M10.0001 18.9579C9.44178 18.9579 8.87511 18.8162 8.37511 18.5246L3.42511 15.6662C2.42511 15.0829 1.80011 14.0079 1.80011 12.8496V7.14961C1.80011 5.99127 2.42511 4.91627 3.42511 4.33294L8.37511 1.47461C9.37511 0.891276 10.6168 0.891276 11.6251 1.47461L16.5751 4.33294C17.5751 4.91627 18.2001 5.99127 18.2001 7.14961V12.8496C18.2001 14.0079 17.5751 15.0829 16.5751 15.6662L11.6251 18.5246C11.1251 18.8162 10.5584 18.9579 10.0001 18.9579ZM10.0001 2.29126C9.65844 2.29126 9.30844 2.38293 9.00011 2.55793L4.05011 5.41626C3.43344 5.77459 3.05011 6.43294 3.05011 7.14961V12.8496C3.05011 13.5579 3.43344 14.2246 4.05011 14.5829L9.00011 17.4413C9.61678 17.7996 10.3834 17.7996 11.0001 17.4413L15.9501 14.5829C16.5668 14.2246 16.9501 13.5662 16.9501 12.8496V7.14961C16.9501 6.44127 16.5668 5.77459 15.9501 5.41626L11.0001 2.55793C10.6918 2.38293 10.3418 2.29126 10.0001 2.29126Z" fill="url(#paint0_linear_782_9347)"/>
<path d="M9.99996 9.79151C8.58329 9.79151 7.43329 8.6415 7.43329 7.22483C7.43329 5.80817 8.58329 4.6582 9.99996 4.6582C11.4166 4.6582 12.5666 5.80817 12.5666 7.22483C12.5666 8.6415 11.4166 9.79151 9.99996 9.79151ZM9.99996 5.9082C9.27496 5.9082 8.68329 6.49983 8.68329 7.22483C8.68329 7.94983 9.27496 8.54151 9.99996 8.54151C10.725 8.54151 11.3166 7.94983 11.3166 7.22483C11.3166 6.49983 10.725 5.9082 9.99996 5.9082Z" fill="url(#paint1_linear_782_9347)"/>
<path d="M13.3334 14.5076C12.9917 14.5076 12.7084 14.2243 12.7084 13.8826C12.7084 12.7326 11.4917 11.791 10 11.791C8.50835 11.791 7.29169 12.7326 7.29169 13.8826C7.29169 14.2243 7.00835 14.5076 6.66669 14.5076C6.32502 14.5076 6.04169 14.2243 6.04169 13.8826C6.04169 12.041 7.81669 10.541 10 10.541C12.1834 10.541 13.9584 12.041 13.9584 13.8826C13.9584 14.2243 13.675 14.5076 13.3334 14.5076Z" fill="url(#paint2_linear_782_9347)"/>
<defs>
<linearGradient id="paint0_linear_782_9347" x1="1.80011" y1="1.03711" x2="19.33" y2="2.22054" gradientUnits="userSpaceOnUse">
<stop stop-color="#FDCD9D"/>
<stop offset="1" stop-color="#F7EF82"/>
</linearGradient>
<linearGradient id="paint1_linear_782_9347" x1="7.43329" y1="4.6582" x2="12.9155" y2="5.06262" gradientUnits="userSpaceOnUse">
<stop stop-color="#FDCD9D"/>
<stop offset="1" stop-color="#F7EF82"/>
</linearGradient>
<linearGradient id="paint2_linear_782_9347" x1="6.04169" y1="10.541" x2="14.362" y2="11.766" gradientUnits="userSpaceOnUse">
<stop stop-color="#FDCD9D"/>
<stop offset="1" stop-color="#F7EF82"/>
</linearGradient>
</defs>
</svg>
