<svg width="42" height="24" viewBox="0 0 42 24" fill="none" xmlns="http://www.w3.org/2000/svg">
<rect width="42" height="24" rx="6" fill="#00579F"/>
<path d="M25.8616 6.75C26.8486 6.75 27.6469 6.97707 28.1503 7.18273L27.8032 9.37759L27.5724 9.26965C27.1107 9.06414 26.5012 8.85877 25.6716 8.88047C24.6642 8.88047 24.2124 9.32355 24.2019 9.75614C24.2019 10.232 24.7485 10.5456 25.6409 11.0106C27.1111 11.7351 27.793 12.6217 27.7829 13.7788C27.7622 15.8874 26.0191 17.25 23.3416 17.25C22.1969 17.2391 21.0943 16.9899 20.4958 16.709L20.8528 14.4274L21.1889 14.5898C22.0184 14.9686 22.5643 15.1305 23.583 15.1305C24.3177 15.1305 25.1054 14.8166 25.1154 14.1356C25.1154 13.6923 24.7799 13.3676 23.7926 12.8702C22.8267 12.3834 21.5353 11.5726 21.5563 10.1127C21.5671 8.134 23.3416 6.75 25.8616 6.75Z" fill="white"/>
<path d="M16.3483 17.0985H18.9L20.4959 6.93425H17.9443L16.3483 17.0985Z" fill="white"/>
<path fill-rule="evenodd" clip-rule="evenodd" d="M34.6914 6.93425H32.7177C32.109 6.93425 31.6466 7.11792 31.384 7.77758L27.5937 17.0984H30.2712C30.2712 17.0984 30.712 15.8439 30.8067 15.5737H34.0829C34.1562 15.9305 34.3874 17.0984 34.3874 17.0984H36.75L34.6914 6.93425ZM31.5417 13.4977C31.7518 12.9138 32.5604 10.6538 32.5604 10.6538C32.5562 10.6626 32.5895 10.5672 32.6392 10.4255C32.7124 10.2164 32.8211 9.90624 32.8962 9.68069L33.0745 10.5565C33.0745 10.5565 33.5577 12.9895 33.6626 13.4977H31.5417Z" fill="white"/>
<path d="M11.718 13.8653L14.217 6.93425H16.9152L12.9043 17.0878H10.206L7.91699 8.19911C9.53395 9.07535 10.9829 10.8376 11.4449 12.4596L11.718 13.8653Z" fill="white"/>
<path d="M9.39747 6.93359H5.292L5.25 7.13897C8.45252 7.98244 10.5735 10.0156 11.4449 12.4594L10.5524 7.78799C10.4055 7.13882 9.95395 6.95501 9.39747 6.93359Z" fill="#FAA61A"/>
<rect x="0.5" y="0.5" width="41" height="23" rx="5.5" stroke="black" stroke-opacity="0.14"/>
</svg>
