<svg width="20" height="24" viewBox="0 0 20 24" fill="none" xmlns="http://www.w3.org/2000/svg">
<path d="M9.75679 21.4703C7.17149 21.4703 4.58619 21.0598 2.13404 20.2387C1.202 19.9169 0.49188 19.2623 0.1812 18.4079C-0.140575 17.5536 -0.0296182 16.6104 0.480784 15.7672L1.75679 13.6479C2.02309 13.204 2.26719 12.3164 2.26719 11.7949V8.58823C2.26719 4.46063 5.62919 1.09863 9.75679 1.09863C13.8844 1.09863 17.2464 4.46063 17.2464 8.58823V11.7949C17.2464 12.3053 17.4905 13.204 17.7568 13.659L19.0217 15.7672C19.4988 16.566 19.5876 17.5314 19.2658 18.4079C18.944 19.2845 18.245 19.9502 17.3684 20.2387C14.9274 21.0598 12.3421 21.4703 9.75679 21.4703ZM9.75679 2.76299C6.55013 2.76299 3.93155 5.37048 3.93155 8.58823V11.7949C3.93155 12.6049 3.59868 13.8032 3.18814 14.5022L1.91213 16.6215C1.66802 17.0321 1.60145 17.4648 1.74569 17.8309C1.87884 18.2082 2.21171 18.4967 2.66664 18.652C7.30464 20.2054 12.22 20.2054 16.858 18.652C17.2575 18.5189 17.5682 18.2193 17.7124 17.8199C17.8567 17.4204 17.8234 16.9877 17.6015 16.6215L16.3254 14.5022C15.9038 13.781 15.582 12.5938 15.582 11.7838V8.58823C15.582 5.37048 12.9745 2.76299 9.75679 2.76299Z" fill="white"/>
<path d="M11.8204 3.06241C11.7427 3.06241 11.665 3.05132 11.5874 3.02913C11.2656 2.94036 10.9549 2.87379 10.6553 2.8294C9.71219 2.70735 8.80235 2.77393 7.94798 3.02913C7.6373 3.12899 7.30443 3.02913 7.09361 2.79612C6.88279 2.56311 6.81622 2.23024 6.93827 1.93065C7.39319 0.765604 8.50276 0 9.76767 0C11.0326 0 12.1422 0.754508 12.5971 1.93065C12.708 2.23024 12.6526 2.56311 12.4417 2.79612C12.2753 2.97365 12.0423 3.06241 11.8204 3.06241Z" fill="white"/>
<path d="M9.75659 24.0002C8.65812 24.0002 7.59293 23.5564 6.81623 22.7797C6.03953 22.003 5.5957 20.9378 5.5957 19.8394H7.26006C7.26006 20.494 7.52635 21.1376 7.99237 21.6036C8.45839 22.0696 9.10194 22.3359 9.75659 22.3359C11.1325 22.3359 12.2531 21.2152 12.2531 19.8394H13.9175C13.9175 22.1362 12.0534 24.0002 9.75659 24.0002Z" fill="white"/>
</svg>
