<svg width="250" height="229" viewBox="0 0 250 229" fill="none" xmlns="http://www.w3.org/2000/svg">
<path d="M120.274 177.576C167.254 177.576 205.341 139.488 205.341 92.3404C205.341 45.1928 167.086 7.10547 120.274 7.10547C73.2943 7.10547 35.207 45.1928 35.207 92.3404C35.207 139.488 73.2943 177.576 120.274 177.576Z" fill="url(#paint0_linear_823_16584)"/>
<path d="M199.804 36.4674C203.604 36.4674 206.683 33.3873 206.683 29.5882C206.683 25.7889 203.604 22.709 199.804 22.709C196.005 22.709 192.925 25.7889 192.925 29.5882C192.925 33.3873 196.005 36.4674 199.804 36.4674Z" fill="#FEFDF0"/>
<path d="M209.871 9.62254C212.466 9.62254 214.569 7.51917 214.569 4.92456C214.569 2.32992 212.466 0.226562 209.871 0.226562C207.277 0.226562 205.173 2.32992 205.173 4.92456C205.173 7.51917 207.277 9.62254 209.871 9.62254Z" fill="#FEFDF0"/>
<path d="M39.7368 36.3003C42.3314 36.3003 44.4348 34.1969 44.4348 31.6023C44.4348 29.0077 42.3314 26.9043 39.7368 26.9043C37.1422 26.9043 35.0388 29.0077 35.0388 31.6023C35.0388 34.1969 37.1422 36.3003 39.7368 36.3003Z" fill="#FEFDF0"/>
<path d="M11.0454 126.905C15.864 126.905 19.7702 122.998 19.7702 118.18C19.7702 113.361 15.864 109.455 11.0454 109.455C6.2268 109.455 2.32056 113.361 2.32056 118.18C2.32056 122.998 6.2268 126.905 11.0454 126.905Z" fill="#FEFDF0"/>
<g filter="url(#filter0_d_823_16584)">
<path d="M144.938 47.0378L170.609 139.32C171.448 142.508 169.602 145.696 166.415 146.534L75.9785 170.528C72.7906 171.367 69.6027 169.522 68.7638 166.333L37.2201 47.2056C36.3812 44.0177 38.2268 40.8298 41.4148 39.9909L106.851 22.709L144.938 47.0378Z" fill="#F3F3F4"/>
</g>
<path d="M143.596 105.427L94.7707 118.346L89.4016 119.688L73.1264 124.051C72.4553 124.219 71.9519 125.058 72.2875 125.896C72.4553 126.735 73.2942 127.239 73.9653 127.071L90.2405 122.709L95.6096 121.366L144.435 108.447C145.106 108.279 145.61 107.44 145.274 106.601C145.106 105.762 144.267 105.259 143.596 105.427Z" fill="#DBDBDE"/>
<path d="M140.408 94.0183L122.287 98.7162L116.079 100.394L70.2739 112.642C69.6027 112.81 69.0994 113.649 69.4349 114.488C69.6027 115.327 70.4416 115.83 71.1128 115.663L117.086 103.414L123.294 101.736L141.415 97.0384C142.086 96.8706 142.589 96.0317 142.254 95.1928C141.918 94.5216 141.079 93.8505 140.408 94.0183Z" fill="#DBDBDE"/>
<path d="M137.724 82.4407L133.026 83.6152L128.328 84.7897L67.0864 101.065C66.4152 101.233 65.9119 102.072 66.2474 102.911C66.4152 103.749 67.2541 104.253 67.9253 104.085L129.167 87.8098L134.368 86.4676L138.563 85.2931C139.234 85.1253 139.737 84.2864 139.402 83.4474C139.234 82.7763 138.563 82.2729 137.724 82.4407Z" fill="#DBDBDE"/>
<path d="M109.368 141.837L106.013 142.676C105.341 142.844 104.503 142.341 104.335 141.502C104.167 140.663 104.503 139.824 105.174 139.656L108.529 138.817C109.201 138.65 110.039 139.153 110.207 139.992C110.375 140.999 110.039 141.67 109.368 141.837Z" fill="#DBDBDE"/>
<path d="M99.1331 144.521L79.8378 149.555C79.1667 149.722 78.3277 149.219 78.1599 148.38C77.9922 147.541 78.3277 146.702 78.9989 146.534L98.2942 141.501C98.9653 141.333 99.8042 141.836 99.972 142.675C100.308 143.514 99.972 144.353 99.1331 144.521Z" fill="#DBDBDE"/>
<path d="M135.375 70.864L120.106 74.8908L116.415 75.8975L64.2338 89.6559C63.5627 89.8237 63.0593 90.6626 63.3949 91.5016C63.5627 92.3405 64.4016 92.8438 65.0728 92.676L117.086 79.0854L120.777 78.0787L135.878 74.0519C136.717 73.8841 137.053 73.0452 136.885 72.0385C136.885 71.3673 136.046 70.6962 135.375 70.864Z" fill="#DBDBDE"/>
<path d="M99.3011 45.5286L56.0125 56.938C55.0057 57.2735 53.999 56.6024 53.6635 55.5957C53.3279 54.589 53.999 53.5823 55.0057 53.2467L98.2943 41.8373C99.3011 41.5017 100.308 42.1729 100.643 43.1796C100.979 44.1863 100.308 45.193 99.3011 45.5286Z" fill="#DBDBDE"/>
<path d="M75.4757 62.9778L58.865 67.3402C57.8583 67.6758 56.8516 67.0046 56.516 65.9979C56.1804 64.9912 56.8516 63.9845 57.8583 63.6489L74.3012 59.2865C75.3079 58.9509 76.3147 59.6221 76.6502 60.6288C76.9858 61.6355 76.3147 62.6422 75.4757 62.9778Z" fill="#DBDBDE"/>
<path d="M106.852 22.709L113.563 48.2123C114.57 51.7358 118.429 53.917 121.952 52.9103L144.939 47.0378" fill="#DBDBDE"/>
<g filter="url(#filter1_d_823_16584)">
<path d="M212.723 73.0458L197.287 167.677C196.784 170.865 193.596 173.046 190.408 172.375L98.4619 156.267C95.274 155.764 93.0928 152.576 93.5962 149.388L114.905 28.0794C115.408 24.8915 118.596 22.7103 121.784 23.3814L188.562 35.1264L212.723 73.0458Z" fill="#F3F3F4"/>
</g>
<path d="M187.052 125.561L137.388 116.836L132.019 115.829L115.408 112.977C114.737 112.809 113.898 113.48 113.898 114.319C113.73 115.158 114.234 115.997 114.905 116.165L131.516 119.017L136.885 120.024L186.549 128.749C187.22 128.917 188.059 128.246 188.059 127.407C188.227 126.568 187.891 125.729 187.052 125.561Z" fill="#DBDBDE"/>
<path d="M189.066 113.985L170.609 110.797L164.402 109.622L117.589 101.401C116.918 101.233 116.079 101.904 116.079 102.743C115.912 103.582 116.415 104.421 117.086 104.589L163.898 112.81L170.106 113.985L188.562 117.173C189.233 117.34 190.072 116.669 190.072 115.83C190.24 114.991 189.737 114.153 189.066 113.985Z" fill="#DBDBDE"/>
<path d="M191.415 102.241L186.549 101.402L181.683 100.563L119.267 89.6567C118.596 89.489 117.757 90.1601 117.757 90.999C117.589 91.838 118.093 92.6769 118.764 92.8447L181.18 103.751L186.549 104.757L190.743 105.429C191.415 105.596 192.253 104.925 192.253 104.086C192.589 103.247 192.253 102.408 191.415 102.241Z" fill="#DBDBDE"/>
<path d="M140.744 144.354L137.388 143.851C136.717 143.683 136.213 142.844 136.381 142.005C136.549 141.166 137.22 140.495 137.891 140.663L141.247 141.166C141.918 141.334 142.421 142.173 142.254 143.012C142.086 144.018 141.415 144.354 140.744 144.354Z" fill="#DBDBDE"/>
<path d="M130.509 142.507L110.878 139.151C110.207 138.984 109.704 138.145 109.871 137.306C110.039 136.467 110.71 135.796 111.382 135.963L131.012 139.319C131.683 139.487 132.187 140.326 132.019 141.165C131.851 142.171 131.18 142.675 130.509 142.507Z" fill="#F3F3F4"/>
<path d="M194.099 90.8303L178.495 88.1457L174.636 87.4746L121.449 78.0786C120.777 77.9108 119.938 78.582 119.938 79.4209C119.77 80.2598 120.274 81.0988 120.945 81.2665L174.133 90.6625L177.992 91.3336L193.428 94.0182C194.267 94.186 194.938 93.5149 195.106 92.6759C195.274 91.837 194.77 90.9981 194.099 90.8303Z" fill="#DBDBDE"/>
<path d="M172.119 52.7437L127.992 45.0256C126.986 44.8578 126.314 43.8511 126.482 42.8444C126.65 41.8376 127.657 41.1665 128.663 41.3343L172.791 49.0524C173.797 49.2202 174.468 50.2269 174.301 51.2336C174.133 52.0725 173.126 52.9115 172.119 52.7437Z" fill="#DBDBDE"/>
<path d="M143.092 58.448L126.146 55.4279C125.139 55.2601 124.468 54.2534 124.636 53.2467C124.804 52.24 125.811 51.5688 126.817 51.7366L143.596 54.7568C144.602 54.9246 145.274 55.9313 145.106 56.938C144.938 57.9447 143.931 58.6158 143.092 58.448Z" fill="#DBDBDE"/>
<path d="M188.394 35.125L183.864 61.1317C183.193 64.823 185.877 68.3465 189.569 69.0176L212.723 73.0445" fill="#DBDBDE"/>
<path d="M149.468 158.783C170.132 158.783 186.884 142.032 186.884 121.367C186.884 100.703 170.132 83.9512 149.468 83.9512C128.804 83.9512 112.052 100.703 112.052 121.367C112.052 142.032 128.804 158.783 149.468 158.783Z" fill="#C6E3D8"/>
<path d="M145.945 127.407C145.777 126.735 145.777 126.064 145.777 125.225C145.777 122.373 146.952 119.856 149.972 117.675L152.489 115.829C153.999 114.655 154.67 113.313 154.67 111.635C154.67 109.286 152.992 106.937 149.469 106.937C145.777 106.937 144.099 109.957 144.099 112.809C144.099 113.48 144.099 113.984 144.267 114.487L137.556 114.319C137.388 113.648 137.22 112.809 137.22 111.97C137.22 106.266 141.415 100.896 149.301 100.896C157.354 100.896 161.717 106.098 161.717 111.299C161.717 115.494 159.536 118.346 156.516 120.527L154.334 122.037C152.489 123.38 151.482 125.058 151.482 127.071V127.407H145.945ZM148.797 130.762C151.146 130.762 152.992 132.608 152.992 134.957C152.992 137.306 151.146 139.152 148.797 139.152C146.448 139.152 144.603 137.306 144.603 134.957C144.771 132.776 146.448 130.762 148.797 130.762Z" fill="#2B5847"/>
<path d="M205.475 179.461C204.022 179.461 202.57 178.88 201.407 177.573L177.154 153.319L176.282 153.9C168.439 159.709 159.29 162.759 149.995 162.759C138.812 162.759 127.629 158.257 119.351 150.415C110.637 142.136 105.844 130.953 105.844 118.754C105.844 94.4997 125.596 74.748 149.85 74.748C166.406 74.748 180.929 83.4621 188.772 98.2759C196.47 112.944 195.453 130.082 186.013 143.879L185.433 144.751L209.832 169.15C212.3 171.618 211.72 174.088 211.283 175.395C210.122 177.719 207.798 179.461 205.475 179.461ZM149.85 86.8024C132.131 86.8024 117.899 101.181 117.899 118.754C117.899 138.796 134.31 150.85 150.286 150.85C160.016 150.85 168.876 146.493 175.121 138.651C182.819 129.065 184.126 116.139 178.751 104.957C173.233 93.7735 162.195 86.8024 149.85 86.8024Z" fill="#2B5847"/>
<defs>
<filter id="filter0_d_823_16584" x="15.0181" y="11.709" width="177.793" height="192.021" filterUnits="userSpaceOnUse" color-interpolation-filters="sRGB">
<feFlood flood-opacity="0" result="BackgroundImageFix"/>
<feColorMatrix in="SourceAlpha" type="matrix" values="0 0 0 0 0 0 0 0 0 0 0 0 0 0 0 0 0 0 127 0" result="hardAlpha"/>
<feOffset dy="11"/>
<feGaussianBlur stdDeviation="11"/>
<feColorMatrix type="matrix" values="0 0 0 0 0.397708 0 0 0 0 0.47749 0 0 0 0 0.575 0 0 0 0.27 0"/>
<feBlend mode="normal" in2="BackgroundImageFix" result="effect1_dropShadow_823_16584"/>
<feBlend mode="normal" in="SourceGraphic" in2="effect1_dropShadow_823_16584" result="shape"/>
</filter>
<filter id="filter1_d_823_16584" x="71.5239" y="12.2598" width="163.199" height="193.236" filterUnits="userSpaceOnUse" color-interpolation-filters="sRGB">
<feFlood flood-opacity="0" result="BackgroundImageFix"/>
<feColorMatrix in="SourceAlpha" type="matrix" values="0 0 0 0 0 0 0 0 0 0 0 0 0 0 0 0 0 0 127 0" result="hardAlpha"/>
<feOffset dy="11"/>
<feGaussianBlur stdDeviation="11"/>
<feColorMatrix type="matrix" values="0 0 0 0 0.397708 0 0 0 0 0.47749 0 0 0 0 0.575 0 0 0 0.27 0"/>
<feBlend mode="normal" in2="BackgroundImageFix" result="effect1_dropShadow_823_16584"/>
<feBlend mode="normal" in="SourceGraphic" in2="effect1_dropShadow_823_16584" result="shape"/>
</filter>
<linearGradient id="paint0_linear_823_16584" x1="35.207" y1="7.10547" x2="216.907" y2="20.4829" gradientUnits="userSpaceOnUse">
<stop stop-color="#FDCD9D"/>
<stop offset="1" stop-color="#F7EF82"/>
</linearGradient>
</defs>
</svg>
