<svg width="200" height="200" viewBox="0 0 200 200" fill="none" xmlns="http://www.w3.org/2000/svg">
<g clip-path="url(#clip0_823_16652)">
<path d="M125.701 87.8984H45.7808V160.618H125.701V87.8984Z" fill="#469175"/>
<path d="M168.181 87.8984H125.701V160.618H168.181V87.8984Z" fill="#38745E"/>
<path d="M168.181 88.0791H125.701L140.251 68.2322C140.39 68.0422 140.573 67.8877 140.783 67.7812C140.993 67.6746 141.225 67.6191 141.461 67.6191H180.221C180.498 67.6191 180.77 67.6959 181.006 67.841C181.242 67.9861 181.434 68.1938 181.559 68.441C181.684 68.6883 181.739 68.9654 181.716 69.2417C181.693 69.5179 181.595 69.7825 181.431 70.006L168.181 88.0791Z" fill="#2B5847"/>
<path d="M45.9783 88.0791H88.4584L73.9078 68.2322C73.7685 68.0422 73.5864 67.8877 73.3762 67.7812C73.1661 67.6746 72.9338 67.6191 72.6981 67.6191H33.938C33.6608 67.6191 33.389 67.6959 33.1529 67.841C32.9167 67.9861 32.7253 68.1938 32.6 68.441C32.4747 68.6883 32.4204 68.9654 32.443 69.2417C32.4656 69.5179 32.5644 69.7825 32.7283 70.006L45.9783 88.0791Z" fill="#38745E"/>
<path d="M192.146 114.578L168.181 88.0781V117.058H191.011C191.298 117.058 191.579 116.976 191.821 116.82C192.063 116.665 192.255 116.444 192.374 116.183C192.494 115.922 192.536 115.632 192.496 115.347C192.455 115.063 192.334 114.796 192.146 114.578Z" fill="#2B5847"/>
<path d="M111.873 52.8965H64.4468C62.2376 52.8965 60.4468 54.6873 60.4468 56.8965V88.0795C60.4468 90.2886 62.2376 92.0795 64.4468 92.0795H111.873C114.083 92.0795 115.873 90.2886 115.873 88.0795V56.8965C115.873 54.6873 114.083 52.8965 111.873 52.8965Z" fill="url(#paint0_linear_823_16652)"/>
<path d="M88.5397 90.4984H73.2907C72.9964 90.4984 72.7072 90.4209 72.4523 90.2738C72.1973 90.1266 71.9856 89.9149 71.8384 89.6599C71.6913 89.405 71.6138 89.1158 71.6138 88.8215C71.6138 88.5271 71.6913 88.2379 71.8384 87.983L79.4629 74.7769L87.0874 61.5709C87.2346 61.316 87.4463 61.1043 87.7012 60.9571C87.9562 60.8099 88.2454 60.7324 88.5397 60.7324C88.8341 60.7324 89.1233 60.8099 89.3782 60.9571C89.6331 61.1043 89.8448 61.316 89.992 61.5709L97.6165 74.7769L105.241 87.983C105.388 88.2379 105.466 88.5271 105.466 88.8215C105.466 89.1158 105.388 89.405 105.241 89.6599C105.094 89.9149 104.882 90.1266 104.627 90.2738C104.372 90.4209 104.083 90.4984 103.789 90.4984H88.5397Z" fill="#F79009"/>
<path d="M89.379 68.9893C89.379 68.526 89.0034 68.1504 88.5401 68.1504C88.0768 68.1504 87.7012 68.526 87.7012 68.9893V81.4954C87.7012 81.9587 88.0768 82.3343 88.5401 82.3343C89.0034 82.3343 89.379 81.9587 89.379 81.4954V68.9893Z" fill="white"/>
<path d="M90.5371 85.8162C90.6463 84.7132 89.8406 83.7304 88.7375 83.6212C87.6345 83.512 86.6517 84.3176 86.5425 85.4207C86.4333 86.5238 87.2389 87.5065 88.342 87.6157C89.4451 87.725 90.4278 86.9193 90.5371 85.8162Z" fill="white"/>
<path d="M99.8335 117.058H23.8755C23.5882 117.058 23.307 116.976 23.0652 116.82C22.8235 116.665 22.6313 116.444 22.5117 116.183C22.3921 115.922 22.35 115.632 22.3904 115.347C22.4308 115.063 22.5521 114.796 22.7397 114.578L45.6005 88.0781H125.52L100.969 116.538C100.828 116.701 100.654 116.832 100.458 116.922C100.262 117.012 100.049 117.058 99.8335 117.058Z" fill="#54AC8B"/>
<path d="M174.144 141.168C176.038 141.168 176.038 142.168 177.933 142.168C179.827 142.168 179.827 141.168 181.722 141.168C183.617 141.168 183.617 142.168 185.513 142.168C187.408 142.168 187.408 141.168 189.304 141.168" stroke="#C6E3D8" stroke-width="3" stroke-miterlimit="10" stroke-linecap="round"/>
<path d="M174.144 145.537C176.038 145.537 176.038 146.537 177.933 146.537C179.827 146.537 179.827 145.537 181.722 145.537C183.617 145.537 183.617 146.537 185.513 146.537C187.408 146.537 187.408 145.537 189.304 145.537" stroke="#C6E3D8" stroke-width="3" stroke-miterlimit="10" stroke-linecap="round"/>
<path d="M174.144 149.906C176.038 149.906 176.038 150.906 177.933 150.906C179.827 150.906 179.827 149.906 181.722 149.906C183.617 149.906 183.617 150.906 185.513 150.906C187.408 150.906 187.408 149.906 189.304 149.906" stroke="#C6E3D8" stroke-width="3" stroke-miterlimit="10" stroke-linecap="round"/>
<path d="M-7.4082 118.059C-5.51337 118.059 -5.51337 119.059 -3.61853 119.059C-1.7243 119.059 -1.7243 118.059 0.169937 118.059C2.06548 118.059 2.06548 119.059 3.96101 119.059C5.85655 119.059 5.85655 118.059 7.75208 118.059" stroke="#C6E3D8" stroke-width="3" stroke-miterlimit="10" stroke-linecap="round"/>
<path d="M-7.4082 122.428C-5.51337 122.428 -5.51337 123.428 -3.61853 123.428C-1.7243 123.428 -1.7243 122.428 0.169937 122.428C2.06548 122.428 2.06548 123.428 3.96101 123.428C5.85655 123.428 5.85655 122.428 7.75208 122.428" stroke="#C6E3D8" stroke-width="3" stroke-miterlimit="10" stroke-linecap="round"/>
<path d="M-7.4082 126.797C-5.51337 126.797 -5.51337 127.797 -3.61853 127.797C-1.7243 127.797 -1.7243 126.797 0.169937 126.797C2.06548 126.797 2.06548 127.797 3.96101 127.797C5.85655 127.797 5.85655 126.797 7.75208 126.797" stroke="#C6E3D8" stroke-width="3" stroke-miterlimit="10" stroke-linecap="round"/>
<path d="M76.9526 32.2715C78.8475 32.2715 78.8475 33.2715 80.7423 33.2715C82.6365 33.2715 82.6365 32.2715 84.5308 32.2715C86.4263 32.2715 86.4263 33.2715 88.3218 33.2715C90.2174 33.2715 90.2174 32.2715 92.1129 32.2715" stroke="#C6E3D8" stroke-width="3" stroke-miterlimit="10" stroke-linecap="round"/>
<path d="M76.9526 36.6406C78.8475 36.6406 78.8475 37.6406 80.7423 37.6406C82.6365 37.6406 82.6365 36.6406 84.5308 36.6406C86.4263 36.6406 86.4263 37.6406 88.3218 37.6406C90.2174 37.6406 90.2174 36.6406 92.1129 36.6406" stroke="#C6E3D8" stroke-width="3" stroke-miterlimit="10" stroke-linecap="round"/>
<path d="M76.9526 41.0117C78.8475 41.0117 78.8475 42.0117 80.7423 42.0117C82.6365 42.0117 82.6365 41.0117 84.5308 41.0117C86.4263 41.0117 86.4263 42.0117 88.3218 42.0117C90.2174 42.0117 90.2174 41.0117 92.1129 41.0117" stroke="#C6E3D8" stroke-width="3" stroke-miterlimit="10" stroke-linecap="round"/>
<path d="M28.8526 174.085C32.4314 174.085 35.3326 171.184 35.3326 167.605C35.3326 164.026 32.4314 161.125 28.8526 161.125C25.2737 161.125 22.3726 164.026 22.3726 167.605C22.3726 171.184 25.2737 174.085 28.8526 174.085Z" fill="#C6E3D8"/>
<path d="M33.5548 153.872C35.4105 153.872 36.9148 152.368 36.9148 150.512C36.9148 148.657 35.4105 147.152 33.5548 147.152C31.6991 147.152 30.1948 148.657 30.1948 150.512C30.1948 152.368 31.6991 153.872 33.5548 153.872Z" fill="#C6E3D8"/>
<path d="M46.8615 173.125C49.5125 173.125 51.6615 170.976 51.6615 168.325C51.6615 165.674 49.5125 163.525 46.8615 163.525C44.2106 163.525 42.0615 165.674 42.0615 168.325C42.0615 170.976 44.2106 173.125 46.8615 173.125Z" fill="#C6E3D8"/>
<path d="M22.4848 86.0605C26.7429 86.0605 30.1948 82.6086 30.1948 78.3506C30.1948 74.0925 26.7429 70.6406 22.4848 70.6406C18.2268 70.6406 14.7749 74.0925 14.7749 78.3506C14.7749 82.6086 18.2268 86.0605 22.4848 86.0605Z" fill="#C6E3D8"/>
<path d="M7.75182 76.8757C9.96978 76.8757 11.7678 75.0777 11.7678 72.8597C11.7678 70.6418 9.96978 68.8438 7.75182 68.8438C5.53385 68.8438 3.73584 70.6418 3.73584 72.8597C3.73584 75.0777 5.53385 76.8757 7.75182 76.8757Z" fill="#C6E3D8"/>
<path d="M11.4405 61.5237C12.7199 61.5237 13.7571 60.4865 13.7571 59.2071C13.7571 57.9278 12.7199 56.8906 11.4405 56.8906C10.1612 56.8906 9.12402 57.9278 9.12402 59.2071C9.12402 60.4865 10.1612 61.5237 11.4405 61.5237Z" fill="#C6E3D8"/>
<path d="M24.2647 66.3995C27.3316 66.3995 29.8179 63.9132 29.8179 60.8462C29.8179 57.7792 27.3316 55.293 24.2647 55.293C21.1977 55.293 18.7114 57.7792 18.7114 60.8462C18.7114 63.9132 21.1977 66.3995 24.2647 66.3995Z" fill="#C6E3D8"/>
<path d="M156.494 48.6679C160.752 48.6679 164.204 45.2161 164.204 40.958C164.204 36.6999 160.752 33.248 156.494 33.248C152.236 33.248 148.784 36.6999 148.784 40.958C148.784 45.2161 152.236 48.6679 156.494 48.6679Z" fill="#C6E3D8"/>
<path d="M168.762 35.1394C170.98 35.1394 172.778 33.3414 172.778 31.1234C172.778 28.9054 170.98 27.1074 168.762 27.1074C166.544 27.1074 164.746 28.9054 164.746 31.1234C164.746 33.3414 166.544 35.1394 168.762 35.1394Z" fill="#C6E3D8"/>
<path d="M184.103 56.6372C186.022 56.6372 187.579 55.081 187.579 53.1614C187.579 51.2417 186.022 49.6855 184.103 49.6855C182.183 49.6855 180.627 51.2417 180.627 53.1614C180.627 55.081 182.183 56.6372 184.103 56.6372Z" fill="#C6E3D8"/>
<path d="M178.591 43.6057C179.871 43.6057 180.908 42.5686 180.908 41.2892C180.908 40.0098 179.871 38.9727 178.591 38.9727C177.312 38.9727 176.275 40.0098 176.275 41.2892C176.275 42.5686 177.312 43.6057 178.591 43.6057Z" fill="#C6E3D8"/>
<path d="M170.61 57.0128C173.677 57.0128 176.163 54.5265 176.163 51.4595C176.163 48.3925 173.677 45.9062 170.61 45.9062C167.543 45.9062 165.057 48.3925 165.057 51.4595C165.057 54.5265 167.543 57.0128 170.61 57.0128Z" fill="#C6E3D8"/>
</g>
<defs>
<linearGradient id="paint0_linear_823_16652" x1="60.4468" y1="52.8965" x2="119.321" y2="59.0401" gradientUnits="userSpaceOnUse">
<stop stop-color="#FDCD9D"/>
<stop offset="1" stop-color="#F7EF82"/>
</linearGradient>
<clipPath id="clip0_823_16652">
<rect width="200" height="200" fill="white"/>
</clipPath>
</defs>
</svg>
